<svg xmlns="http://www.w3.org/2000/svg" width="200" height="201.234" viewBox="0 0 200 201.234">
  <g id="Grupo_179566" data-name="Grupo 179566" transform="translate(-190 -422.5)">
    <path id="blob_3_" data-name="blob(3)" d="M141.739,10.788c15.551,43.644,1.5,101.669-30.267,121.4s-81.1,1.171-115.716-26.421C-38.858,78.01-58.757,41.054-49.727,6.607-40.865-27.84-2.906-59.612,38.732-60.782,80.369-62.12,126.02-32.857,141.739,10.788Z" transform="translate(241.898 483.326)" fill="#fff0e5"/>
    <path id="Trazado_210980" data-name="Trazado 210980" d="M-1.863-2.943V-7.8H-6.588v-3.321h4.725v-4.86H1.863v4.86H6.588V-7.8H1.863v4.86Z" transform="translate(295.222 551.895)" fill="#ff6b00"/>
    <path id="Trazado_210981" data-name="Trazado 210981" d="M-1.863-2.943V-7.8H-6.588v-3.321h4.725v-4.86H1.863v4.86H6.588V-7.8H1.863v4.86Z" transform="translate(211.889 574.117)" fill="#ff6b00"/>
    <path id="Trazado_210982" data-name="Trazado 210982" d="M-1.863-2.943V-7.8H-6.588v-3.321h4.725v-4.86H1.863v4.86H6.588V-7.8H1.863v4.86Z" transform="translate(323 457.45)" fill="#ff6b00"/>
    <path id="Trazado_210983" data-name="Trazado 210983" d="M5.556,0A5.556,5.556,0,1,1,0,5.556,5.556,5.556,0,0,1,5.556,0Z" transform="translate(198.333 462.006)" fill="#ff6b00"/>
    <path id="Trazado_210984" data-name="Trazado 210984" d="M5.556,0A5.556,5.556,0,1,1,0,5.556,5.556,5.556,0,0,1,5.556,0Z" transform="translate(235.833 591.173)" fill="#ff6b00"/>
    <path id="Trazado_210985" data-name="Trazado 210985" d="M5.556,0A5.556,5.556,0,1,1,0,5.556,5.556,5.556,0,0,1,5.556,0Z" transform="translate(341.389 585.617)" fill="#ff6b00"/>
    <path id="Trazado_210986" data-name="Trazado 210986" d="M13.889,0A13.889,13.889,0,1,1,0,13.889,13.889,13.889,0,0,1,13.889,0Z" transform="translate(253.889 445.339)" fill="#ff6b00" opacity="0.1"/>
    <path id="Trazado_210987" data-name="Trazado 210987" d="M13.889,0A13.889,13.889,0,1,1,0,13.889,13.889,13.889,0,0,1,13.889,0Z" transform="translate(341.389 537.006)" fill="#ff6b00" opacity="0.1"/>
    <path id="Trazado_210988" data-name="Trazado 210988" d="M9.722,0A9.722,9.722,0,1,1,0,9.722,9.722,9.722,0,0,1,9.722,0Z" transform="translate(363.611 434.228)" fill="#ff6b00" opacity="0.1"/>
    <path id="Trazado_210989" data-name="Trazado 210989" d="M9.722,0A9.722,9.722,0,1,1,0,9.722,9.722,9.722,0,0,1,9.722,0Z" transform="translate(196.944 595.339)" fill="#ff6b00" opacity="0.1"/>
    <path id="Trazado_210990" data-name="Trazado 210990" d="M13.889,0A13.889,13.889,0,1,1,0,13.889,13.889,13.889,0,0,1,13.889,0Z" transform="translate(249.722 577.283)" fill="#ff6b00" opacity="0.1"/>
    <g id="Trazado_210991" data-name="Trazado 210991" transform="translate(335.833 531.45)" fill="none">
      <path d="M5.556,0A5.556,5.556,0,1,1,0,5.556,5.556,5.556,0,0,1,5.556,0Z" stroke="none"/>
      <path d="M 5.55555534362793 1.999995231628418 C 3.595015525817871 1.999995231628418 1.999995231628418 3.595015525817871 1.999995231628418 5.55555534362793 C 1.999995231628418 7.516095161437988 3.595015525817871 9.111115455627441 5.55555534362793 9.111115455627441 C 7.516095161437988 9.111115455627441 9.111115455627441 7.516095161437988 9.111115455627441 5.55555534362793 C 9.111115455627441 3.595015525817871 7.516095161437988 1.999995231628418 5.55555534362793 1.999995231628418 M 5.55555534362793 -4.76837158203125e-06 C 8.623805046081543 -4.76837158203125e-06 11.11111545562744 2.487305641174316 11.11111545562744 5.55555534362793 C 11.11111545562744 8.623805046081543 8.623805046081543 11.11111545562744 5.55555534362793 11.11111545562744 C 2.487305641174316 11.11111545562744 -4.76837158203125e-06 8.623805046081543 -4.76837158203125e-06 5.55555534362793 C -4.76837158203125e-06 2.487305641174316 2.487305641174316 -4.76837158203125e-06 5.55555534362793 -4.76837158203125e-06 Z" stroke="none" fill="#ff6b00"/>
    </g>
    <g id="Trazado_210992" data-name="Trazado 210992" transform="translate(206.667 503.673)" fill="none">
      <path d="M5.556,0A5.556,5.556,0,1,1,0,5.556,5.556,5.556,0,0,1,5.556,0Z" stroke="none"/>
      <path d="M 5.55555534362793 1.999995231628418 C 3.595015525817871 1.999995231628418 1.999995231628418 3.595015525817871 1.999995231628418 5.55555534362793 C 1.999995231628418 7.516095161437988 3.595015525817871 9.111115455627441 5.55555534362793 9.111115455627441 C 7.516095161437988 9.111115455627441 9.111115455627441 7.516095161437988 9.111115455627441 5.55555534362793 C 9.111115455627441 3.595015525817871 7.516095161437988 1.999995231628418 5.55555534362793 1.999995231628418 M 5.55555534362793 -4.76837158203125e-06 C 8.623805046081543 -4.76837158203125e-06 11.11111545562744 2.487305641174316 11.11111545562744 5.55555534362793 C 11.11111545562744 8.623805046081543 8.623805046081543 11.11111545562744 5.55555534362793 11.11111545562744 C 2.487305641174316 11.11111545562744 -4.76837158203125e-06 8.623805046081543 -4.76837158203125e-06 5.55555534362793 C -4.76837158203125e-06 2.487305641174316 2.487305641174316 -4.76837158203125e-06 5.55555534362793 -4.76837158203125e-06 Z" stroke="none" fill="#ff6b00"/>
    </g>
    <g id="Trazado_210993" data-name="Trazado 210993" transform="translate(227.5 459.229)" fill="#fff" stroke-linecap="round">
      <path d="M 88.77777862548828 36 L 1.500001788139343 36 L 1.500001788139343 1.5 L 88.77777862548828 1.5 L 88.77777862548828 36 Z" stroke="none"/>
      <path d="M 3 3 L 3 34.5 L 87.27777862548828 34.5 L 87.27777862548828 3 L 3 3 M 0 0 L 90.27777862548828 0 L 90.27777862548828 37.5 L 0 37.5 L 0 0 Z" stroke="none" fill="#404040"/>
    </g>
    <g id="Trazado_210994" data-name="Trazado 210994" transform="translate(262.223 505.062)" fill="#fff" stroke-linecap="round">
      <path d="M 88.77777862548828 36 L 1.500001788139343 36 L 1.500001788139343 1.5 L 88.77777862548828 1.5 L 88.77777862548828 36 Z" stroke="none"/>
      <path d="M 3 3 L 3 34.5 L 87.27777862548828 34.5 L 87.27777862548828 3 L 3 3 M 0 0 L 90.27777862548828 0 L 90.27777862548828 37.5 L 0 37.5 L 0 0 Z" stroke="none" fill="#404040"/>
    </g>
    <g id="Trazado_210995" data-name="Trazado 210995" transform="translate(227.5 550.896)" fill="#fff" stroke-linecap="round">
      <path d="M 88.77777862548828 36 L 1.500001788139343 36 L 1.500001788139343 1.5 L 88.77777862548828 1.5 L 88.77777862548828 36 Z" stroke="none"/>
      <path d="M 3 3 L 3 34.5 L 87.27777862548828 34.5 L 87.27777862548828 3 L 3 3 M 0 0 L 90.27777862548828 0 L 90.27777862548828 37.5 L 0 37.5 L 0 0 Z" stroke="none" fill="#404040"/>
    </g>
    <path id="Trazado_51" data-name="Trazado 51" d="M-10.649,1.776h-8.222L-20.4,5.553H-26.01l8.583-19.444h5.417L-3.4,5.553H-9.121ZM-12.26-2.28-14.76-8.5l-2.5,6.222ZM16.99-4.586A5.452,5.452,0,0,1,19.6-2.766,4.774,4.774,0,0,1,20.546.22,4.483,4.483,0,0,1,18.49,4.164a10.6,10.6,0,0,1-5.944,1.389H2.046V-13.891H11.99a9.77,9.77,0,0,1,5.667,1.375A4.316,4.316,0,0,1,19.6-8.808a4.619,4.619,0,0,1-.681,2.486A4.759,4.759,0,0,1,16.99-4.586ZM7.49-9.919v3.75h3.778q2.778,0,2.778-1.889,0-1.861-2.778-1.861ZM12.1,1.581q2.889,0,2.889-1.972T12.1-2.363H7.49V1.581ZM36.99,5.942A11.507,11.507,0,0,1,31.5,4.651a9.659,9.659,0,0,1-3.819-3.6A9.921,9.921,0,0,1,26.3-4.169a9.921,9.921,0,0,1,1.389-5.222,9.659,9.659,0,0,1,3.819-3.6A11.507,11.507,0,0,1,36.99-14.28a11.776,11.776,0,0,1,4.806.944,9.246,9.246,0,0,1,3.556,2.722l-3.5,3.167a5.757,5.757,0,0,0-4.583-2.278,5.657,5.657,0,0,0-2.819.694,4.82,4.82,0,0,0-1.917,1.958,6.027,6.027,0,0,0-.681,2.9,6.027,6.027,0,0,0,.681,2.9A4.82,4.82,0,0,0,34.448.692a5.657,5.657,0,0,0,2.819.694A5.757,5.757,0,0,0,41.851-.891l3.5,3.167A9.246,9.246,0,0,1,41.8,5,11.776,11.776,0,0,1,36.99,5.942Z" transform="translate(261.829 481.453)" fill="#404040"/>
    <path id="Trazado_49" data-name="Trazado 49" d="M7.221,1.667H-1L-2.529,5.444H-8.14L.443-14H5.86L14.471,5.444H8.749ZM5.61-2.389,3.11-8.611.61-2.389Z" transform="translate(245.168 574.617)" fill="#404040"/>
    <path id="Trazado_50" data-name="Trazado 50" d="M-1.869,1.667h-8.222l-1.528,3.778H-17.23L-8.647-14H-3.23L5.381,5.444H-.341ZM-3.48-2.389l-2.5-6.222-2.5,6.222ZM25.77-4.694a5.452,5.452,0,0,1,2.611,1.819A4.774,4.774,0,0,1,29.326.111,4.483,4.483,0,0,1,27.27,4.056a10.6,10.6,0,0,1-5.944,1.389h-10.5V-14H20.77a9.77,9.77,0,0,1,5.667,1.375,4.316,4.316,0,0,1,1.944,3.708A4.619,4.619,0,0,1,27.7-6.431,4.759,4.759,0,0,1,25.77-4.694Zm-9.5-5.333v3.75h3.778q2.778,0,2.778-1.889,0-1.861-2.778-1.861Zm4.611,11.5q2.889,0,2.889-1.972T20.881-2.472H16.27V1.472Z" transform="translate(288.855 527.396)" fill="#404040"/>
  </g>
</svg>
