<svg xmlns="http://www.w3.org/2000/svg" xmlns:xlink="http://www.w3.org/1999/xlink" width="85.313" height="127.249" viewBox="0 0 85.313 127.249">
  <defs>
    <linearGradient id="linear-gradient" x1="-3.471" y1="5.543" x2="-3.471" y2="5.537" gradientUnits="objectBoundingBox">
      <stop offset="0" stop-color="#ffb255"/>
      <stop offset="1" stop-color="#ffca85"/>
    </linearGradient>
    <linearGradient id="linear-gradient-2" x1="-3.902" y1="6.424" x2="-3.9" y2="6.432" gradientUnits="objectBoundingBox">
      <stop offset="0" stop-color="#989898"/>
      <stop offset="1" stop-color="#ececec"/>
    </linearGradient>
    <linearGradient id="linear-gradient-3" x1="-3.881" y1="6.422" x2="-3.884" y2="6.413" gradientUnits="objectBoundingBox">
      <stop offset="0" stop-color="#fbfbfb"/>
      <stop offset="1" stop-color="#e5e5e5"/>
    </linearGradient>
    <linearGradient id="linear-gradient-4" x1="-3.434" y1="5.882" x2="-3.432" y2="5.887" xlink:href="#linear-gradient"/>
    <linearGradient id="linear-gradient-5" x1="-3.435" y1="8.666" x2="-3.433" y2="8.676" gradientUnits="objectBoundingBox">
      <stop offset="0" stop-color="#fff"/>
      <stop offset="1" stop-color="#ffca85"/>
    </linearGradient>
    <linearGradient id="linear-gradient-6" x1="-3.931" y1="8.498" x2="-3.927" y2="8.485" xlink:href="#linear-gradient"/>
    <linearGradient id="linear-gradient-7" x1="-3.915" y1="8.468" x2="-3.921" y2="8.481" xlink:href="#linear-gradient"/>
    <linearGradient id="linear-gradient-8" x1="-3.915" y1="8.634" x2="-3.921" y2="8.648" xlink:href="#linear-gradient-5"/>
    <linearGradient id="linear-gradient-9" x1="-12.204" y1="13.511" x2="-12.179" y2="13.493" xlink:href="#linear-gradient"/>
  </defs>
  <g id="Grupo_179620" data-name="Grupo 179620" transform="translate(11783.092 12254)">
    <g id="Grupo_179619" data-name="Grupo 179619">
      <g id="Grupo_179618" data-name="Grupo 179618">
        <g id="Grupo_179429" data-name="Grupo 179429">
          <path id="Trazado_199228" data-name="Trazado 199228" d="M425.069-36.988l-4.875,34.2L396.347,11.331,386.07,17.618,380.422,7.426l-19.55-33.934a1.906,1.906,0,0,0-2.593-.735,1.908,1.908,0,0,0-.968,1.48l-6.064,56.516a5.32,5.32,0,0,0,3.414,5.469l65.018,24.467a3.138,3.138,0,0,0,3.709-1.183,3.056,3.056,0,0,0,.513-1.331L432.8-6.5C432.917-7.32,425.069-36.988,425.069-36.988Z" transform="translate(-12131.328 -12189.789)" fill="url(#linear-gradient)"/>
          <path id="Trazado_199229" data-name="Trazado 199229" d="M359.029-23.621l6.406-37.818a3.329,3.329,0,0,1,3.838-2.725c.107.019.214.042.319.071l61.347,16.738a3.542,3.542,0,0,1,2.559,4.01L427.213-6.4,383.7,24.368Z" transform="translate(-12131.328 -12189.789)" fill="url(#linear-gradient-2)"/>
          <path id="Trazado_199230" data-name="Trazado 199230" d="M357.6-22.807l6.407-37.818a3.327,3.327,0,0,1,3.836-2.725,3.145,3.145,0,0,1,.32.071l61.347,16.738a3.54,3.54,0,0,1,2.559,4.01L425.789-5.588l-43.511,30.77Z" transform="translate(-12131.328 -12189.789)" fill="url(#linear-gradient-3)"/>
          <path id="Trazado_199231" data-name="Trazado 199231" d="M429.817-4.354l-8.9,64.675a3.062,3.062,0,0,1-.512,1.332,3.138,3.138,0,0,1-3.709,1.183L351.677,38.368a5.315,5.315,0,0,1-3.413-5.468l5.606-58.663a1.906,1.906,0,0,1,2.082-1.713,1.906,1.906,0,0,1,1.479.968L377.439,9.573l5.648,10.192,10.277-6.287L426.291-6.663a2.334,2.334,0,0,1,3.207.78A2.329,2.329,0,0,1,429.817-4.354Z" transform="translate(-12131.328 -12189.789)" fill="url(#linear-gradient-4)"/>
          <path id="Trazado_199232" data-name="Trazado 199232" d="M348.261,33.687l5.606-58.663a1.906,1.906,0,0,1,2.082-1.713,1.906,1.906,0,0,1,1.479.968L377.436,10.36l5.648,10.192,10.277-6.287L426.288-5.876A2.338,2.338,0,0,1,429.5-5.1a2.342,2.342,0,0,1,.306.811l.009-.067a2.334,2.334,0,0,0-1.995-2.63,2.332,2.332,0,0,0-1.534.321L393.361,13.478l-10.277,6.287L377.436,9.573,357.428-26.508a1.906,1.906,0,0,0-2.593-.735,1.908,1.908,0,0,0-.968,1.48L348.261,32.9a5.2,5.2,0,0,0-.009.9C348.255,33.763,348.257,33.725,348.261,33.687Z" transform="translate(-12131.328 -12189.789)" fill="url(#linear-gradient-5)"/>
          <g id="Grupo_152047" data-name="Grupo 152047" transform="translate(-12131.328 -12190.481)" opacity="0.24">
            <path id="Elipse_5399" data-name="Elipse 5399" d="M18.87-.489c10.422-.27,18.5,11.637,18.046,26.6s-9.273,27.3-19.695,27.573-18.5-11.637-18.046-26.6S8.449-.219,18.87-.489Z" transform="matrix(0.167, -0.986, 0.986, 0.167, 354.866, 41.134)" fill="rgba(76,0,0,0)"/>
            <path id="Elipse_5400" data-name="Elipse 5400" d="M18.418-.489c10.172-.27,18.049,11.3,17.594,25.833S26.942,51.885,16.77,52.155-1.279,40.859-.824,26.322,8.246-.219,18.418-.489Z" transform="matrix(0.167, -0.986, 0.986, 0.167, 355.693, 40.815)" fill="#4a0101" opacity="0.038"/>
            <path id="Elipse_5401" data-name="Elipse 5401" d="M17.966-.489c9.923-.27,17.6,10.955,17.142,25.071S26.241,50.361,16.318,50.631-1.279,39.676-.824,25.56,8.044-.219,17.966-.489Z" transform="matrix(0.167, -0.986, 0.986, 0.167, 356.52, 40.496)" fill="#480202" opacity="0.077"/>
            <path id="Elipse_5402" data-name="Elipse 5402" d="M17.514-.489C27.187-.759,34.66,10.125,34.2,23.82S25.539,48.835,15.866,49.105-1.279,38.492-.824,24.8,7.841-.219,17.514-.489Z" transform="matrix(0.167, -0.986, 0.986, 0.167, 357.347, 40.178)" fill="#460303" opacity="0.115"/>
            <path id="Elipse_5403" data-name="Elipse 5403" d="M17.062-.489C26.486-.759,33.756,9.783,33.3,23.058S24.838,47.311,15.414,47.581-1.279,37.309-.824,24.035,7.639-.219,17.062-.489Z" transform="matrix(0.167, -0.986, 0.986, 0.167, 358.174, 39.859)" fill="#440404" opacity="0.154"/>
            <path id="Elipse_5404" data-name="Elipse 5404" d="M16.61-.489C25.784-.759,32.852,9.442,32.4,22.3S24.136,45.787,14.962,46.057-1.279,36.126-.824,23.273,7.437-.219,16.61-.489Z" transform="matrix(0.167, -0.986, 0.986, 0.167, 359.001, 39.54)" fill="#420505" opacity="0.192"/>
            <path id="Elipse_5405" data-name="Elipse 5405" d="M16.158-.489C25.082-.759,31.948,9.1,31.493,21.532s-8.058,22.729-16.983,23S-1.279,34.942-.824,22.51,7.234-.219,16.158-.489Z" transform="matrix(0.167, -0.986, 0.986, 0.167, 359.828, 39.221)" fill="#400606" opacity="0.231"/>
            <path id="Elipse_5406" data-name="Elipse 5406" d="M15.705-.489c8.674-.27,15.336,9.248,14.881,21.259s-7.856,21.967-16.53,22.237S-1.279,33.759-.824,21.748,7.032-.219,15.705-.489Z" transform="matrix(0.167, -0.986, 0.986, 0.167, 360.656, 38.903)" fill="#3e0606" opacity="0.269"/>
            <path id="Elipse_5407" data-name="Elipse 5407" d="M15.254-.49c8.424-.27,14.884,8.907,14.428,20.5S22.027,41.216,13.6,41.487-1.281,32.58-.826,20.988,6.829-.219,15.254-.49Z" transform="translate(361.483 38.584) rotate(-80.387)" fill="#3c0707" opacity="0.308"/>
            <path id="Elipse_5408" data-name="Elipse 5408" d="M14.8-.49c8.175-.27,14.432,8.566,13.976,19.736S21.325,39.69,13.151,39.961-1.281,31.4-.826,20.225,6.627-.219,14.8-.49Z" transform="translate(362.31 38.265) rotate(-80.387)" fill="#3a0808" opacity="0.346"/>
            <path id="Elipse_5409" data-name="Elipse 5409" d="M14.349-.489c7.925-.27,13.98,8.224,13.525,18.972S20.626,38.163,12.7,38.433-1.279,30.209-.824,19.461,6.424-.219,14.349-.489Z" transform="matrix(0.167, -0.986, 0.986, 0.167, 363.137, 37.946)" fill="#380909" opacity="0.385"/>
            <path id="Elipse_5410" data-name="Elipse 5410" d="M13.9-.49C21.573-.76,27.426,7.394,26.97,17.722s-7.048,18.92-14.723,19.191S-1.281,29.029-.826,18.7,6.222-.219,13.9-.49Z" transform="translate(363.964 37.628) rotate(-80.387)" fill="#360a0a" opacity="0.423"/>
            <path id="Elipse_5411" data-name="Elipse 5411" d="M13.446-.49c7.426-.27,13.076,7.542,12.62,17.448S19.22,35.116,11.794,35.386-1.281,27.845-.826,17.938,6.02-.219,13.446-.49Z" transform="translate(364.791 37.309) rotate(-80.387)" fill="#340b0b" opacity="0.462"/>
            <path id="Elipse_5412" data-name="Elipse 5412" d="M12.994-.49C20.17-.76,25.617,6.711,25.162,16.2s-6.643,17.4-13.819,17.666S-1.281,26.662-.826,17.176,5.817-.219,12.994-.49Z" transform="translate(365.618 36.99) rotate(-80.387)" fill="#330c0c" opacity="0.5"/>
            <path id="Elipse_5413" data-name="Elipse 5413" d="M12.542-.49C19.468-.76,24.713,6.37,24.258,15.435s-6.441,16.633-13.367,16.9S-1.281,25.479-.826,16.414,5.615-.219,12.542-.49Z" transform="translate(366.445 36.672) rotate(-80.387)" fill="#310d0d" opacity="0.538"/>
            <path id="Elipse_5414" data-name="Elipse 5414" d="M12.089-.489c6.677-.27,11.72,6.518,11.265,15.16S17.118,30.539,10.441,30.809-1.279,24.292-.824,15.649,5.413-.219,12.089-.489Z" transform="matrix(0.167, -0.986, 0.986, 0.167, 367.272, 36.353)" fill="#2f0e0e" opacity="0.577"/>
            <path id="Elipse_5415" data-name="Elipse 5415" d="M11.637-.49c6.427-.27,11.268,6.176,10.812,14.4S16.414,29.018,9.986,29.288-1.281,23.112-.826,14.889,5.21-.219,11.637-.49Z" transform="translate(368.099 36.034) rotate(-80.387)" fill="#2d0f0f" opacity="0.615"/>
            <path id="Elipse_5416" data-name="Elipse 5416" d="M11.185-.489C17.363-.759,22,5.346,21.547,13.146S15.715,27.489,9.537,27.759-1.279,21.924-.824,14.124,5.008-.219,11.185-.489Z" transform="matrix(0.167, -0.986, 0.986, 0.167, 368.926, 35.715)" fill="#2b1010" opacity="0.654"/>
            <path id="Elipse_5417" data-name="Elipse 5417" d="M10.732-.489C16.66-.759,21.1,5,20.641,12.385S15.012,25.965,9.084,26.235-1.279,20.742-.824,13.362,4.805-.219,10.732-.489Z" transform="matrix(0.167, -0.986, 0.986, 0.167, 369.753, 35.397)" fill="#291111" opacity="0.692"/>
            <path id="Elipse_5418" data-name="Elipse 5418" d="M10.28-.489c5.678-.27,9.911,5.152,9.456,12.111S14.31,24.441,8.632,24.711-1.279,19.559-.824,12.6,4.6-.219,10.28-.489Z" transform="matrix(0.167, -0.986, 0.986, 0.167, 370.58, 35.078)" fill="#271212" opacity="0.731"/>
            <path id="Elipse_5419" data-name="Elipse 5419" d="M9.828-.489c5.428-.27,9.459,4.811,9,11.348S13.608,22.915,8.18,23.185s-9.459-4.811-9-11.348S4.4-.219,9.828-.489Z" transform="matrix(0.167, -0.986, 0.986, 0.167, 371.407, 34.759)" fill="#251212" opacity="0.769"/>
            <ellipse id="Elipse_5420" data-name="Elipse 5420" cx="9.186" cy="15.49" rx="9.186" ry="15.49" transform="matrix(0.167, -0.986, 0.986, 0.167, 367.293, 34.249)" fill="#231313" opacity="0.808" style="isolation: isolate"/>
            <ellipse id="Elipse_5421" data-name="Elipse 5421" cx="8.734" cy="14.728" rx="8.734" ry="14.728" transform="matrix(0.167, -0.986, 0.986, 0.167, 368.12, 33.93)" fill="#211414" opacity="0.846" style="isolation: isolate"/>
            <ellipse id="Elipse_5422" data-name="Elipse 5422" cx="8.282" cy="13.965" rx="8.282" ry="13.965" transform="matrix(0.167, -0.986, 0.986, 0.167, 368.947, 33.611)" fill="#1f1515" opacity="0.885" style="isolation: isolate"/>
            <ellipse id="Elipse_5423" data-name="Elipse 5423" cx="7.83" cy="13.203" rx="7.83" ry="13.203" transform="matrix(0.167, -0.986, 0.986, 0.167, 369.774, 33.292)" fill="#1d1616" opacity="0.923" style="isolation: isolate"/>
            <ellipse id="Elipse_5424" data-name="Elipse 5424" cx="7.378" cy="12.442" rx="7.378" ry="12.442" transform="translate(370.601 32.974) rotate(-80.387)" fill="#1b1717" opacity="0.962" style="isolation: isolate"/>
            <ellipse id="Elipse_5425" data-name="Elipse 5425" cx="6.926" cy="11.678" rx="6.926" ry="11.678" transform="matrix(0.167, -0.986, 0.986, 0.167, 371.428, 32.655)" fill="#191818"/>
          </g>
          <path id="Trazado_199233" data-name="Trazado 199233" d="M421.225,60.624a3.14,3.14,0,0,1-3.709,1.183L352.5,37.339A5.3,5.3,0,0,1,349.65,34.8L378.26,8.544l4.587-4.21a4.809,4.809,0,0,1,6.8.29,4.751,4.751,0,0,1,.651.9l3.89,6.926Z" transform="translate(-12131.328 -12189.789)" fill="url(#linear-gradient-6)"/>
          <path id="Trazado_199234" data-name="Trazado 199234" d="M420.4,61.653a3.138,3.138,0,0,1-3.709,1.183L351.674,38.368a5.309,5.309,0,0,1-2.848-2.541l28.61-26.254,4.588-4.21a4.81,4.81,0,0,1,7.447,1.188l3.89,6.927Z" transform="translate(-12131.328 -12189.789)" fill="url(#linear-gradient-7)"/>
          <path id="Trazado_199235" data-name="Trazado 199235" d="M377.287,9.871l4.588-4.21a4.809,4.809,0,0,1,6.8.291,4.751,4.751,0,0,1,.651.9l3.89,6.926,27.009,48.118c.063-.077.124-.158.181-.241L393.361,13.478l-3.89-6.927a4.811,4.811,0,0,0-6.551-1.838,4.889,4.889,0,0,0-.9.65l-4.588,4.21-28.61,26.254c.019.036.039.072.059.108Z" transform="translate(-12131.328 -12189.789)" fill="url(#linear-gradient-8)"/>
          <path id="Trazado_199236" data-name="Trazado 199236" d="M355.247-27.488l4.832-2.319-.906,5.347,19.089,33-.823,1.029Z" transform="translate(-12131.328 -12189.789)" fill="url(#linear-gradient-9)"/>
          <g id="Grupo_152049" data-name="Grupo 152049" transform="translate(-12131.328 -12189.789)">
            <path id="Trazado_199237" data-name="Trazado 199237" d="M405.479-17.006a12.039,12.039,0,0,1-14.938,8.167q-.36-.105-.712-.232A16.327,16.327,0,0,1,378.94-25.4c.624-8.265,7.813-13.344,15.56-11.25a15.989,15.989,0,0,1,10.315,9.241,2.442,2.442,0,0,0,2.9,1.523l.124-.042a1.688,1.688,0,0,0,.96-2.186c-.012-.032-.026-.065-.041-.1a20.766,20.766,0,0,0-14.281-12.768,15.712,15.712,0,0,0-19.071,11.4q-.173.686-.283,1.385A21.024,21.024,0,0,0,389.906-4.7C399.568-2.086,408.563-8.055,410-18.03v-.014a.883.883,0,0,0-.752-1,.892.892,0,0,0-.3.011l-2.136.645A2.011,2.011,0,0,0,405.479-17.006Z" fill="#4dd0e1"/>
            <g id="Grupo_152048" data-name="Grupo 152048">
              <path id="Trazado_199238" data-name="Trazado 199238" d="M391.832-16.477a4.115,4.115,0,0,1-.975-.41,4.513,4.513,0,0,1-1.98-2.409l-4.03-11.429a1.466,1.466,0,0,1,.77-1.925c.034-.015.068-.028.1-.04a1.68,1.68,0,0,1,1.968,1.141l4.029,11.429a.85.85,0,0,0,.374.454.7.7,0,0,0,.54.076l21.989-6.387a1.679,1.679,0,0,1,1.968,1.14,1.466,1.466,0,0,1-.77,1.926c-.033.015-.067.028-.1.04l-21.988,6.383A3.5,3.5,0,0,1,391.832-16.477Z" fill="#4dd0e1"/>
            </g>
          </g>
        </g>
      </g>
    </g>
  </g>
</svg>
