<svg xmlns="http://www.w3.org/2000/svg" xmlns:xlink="http://www.w3.org/1999/xlink" width="373.815" height="378.846" viewBox="0 0 373.815 378.846">
  <defs>
    <clipPath id="clip-path">
      <circle id="Elipse_5566" data-name="Elipse 5566" cx="178.742" cy="178.742" r="178.742" transform="translate(303.611 -58.64)" fill="none"/>
    </clipPath>
    <linearGradient id="linear-gradient" x1="2.682" y1="-0.125" x2="3.544" y2="0.988" gradientUnits="objectBoundingBox">
      <stop offset="0" stop-color="#fda78c"/>
      <stop offset="1" stop-color="#fdc3a2"/>
    </linearGradient>
    <linearGradient id="linear-gradient-2" x1="5.94" y1="1.161" x2="3.143" y2="0.184" gradientUnits="objectBoundingBox">
      <stop offset="0" stop-color="#bf4092"/>
      <stop offset="1" stop-color="#fff"/>
    </linearGradient>
    <linearGradient id="linear-gradient-3" x1="6.741" y1="-0.572" x2="7.562" y2="1.231" xlink:href="#linear-gradient-2"/>
    <linearGradient id="linear-gradient-4" x1="2.433" y1="-0.201" x2="3.228" y2="0.908" xlink:href="#linear-gradient"/>
    <linearGradient id="linear-gradient-5" x1="3.785" y1="-0.655" x2="3.976" y2="1.572" xlink:href="#linear-gradient-2"/>
    <linearGradient id="linear-gradient-6" x1="3.126" y1="0.795" x2="5.93" y2="-0.448" gradientUnits="objectBoundingBox">
      <stop offset="0" stop-color="#d9edff"/>
      <stop offset="1" stop-color="#e3ffff"/>
    </linearGradient>
    <linearGradient id="linear-gradient-7" x1="1.743" y1="0.901" x2="2.311" y2="-0.326" xlink:href="#linear-gradient-6"/>
    <linearGradient id="linear-gradient-8" x1="4.95" y1="0.193" x2="4.672" y2="1.057" xlink:href="#linear-gradient"/>
    <linearGradient id="linear-gradient-9" x1="5.345" y1="1.537" x2="5.72" y2="-0.957" gradientUnits="objectBoundingBox">
      <stop offset="0" stop-color="#dc8cc0"/>
      <stop offset="1" stop-color="#fff"/>
    </linearGradient>
    <linearGradient id="linear-gradient-10" x1="3.39" y1="1.035" x2="2.054" y2="-0.322" xlink:href="#linear-gradient-6"/>
    <linearGradient id="linear-gradient-11" x1="3.874" y1="2.603" x2="3.33" y2="-1.74" xlink:href="#linear-gradient-2"/>
    <linearGradient id="linear-gradient-12" x1="27.305" y1="-3.186" x2="24.335" y2="0.257" xlink:href="#linear-gradient-2"/>
    <linearGradient id="linear-gradient-13" x1="12.281" y1="-1.597" x2="9.059" y2="1.291" xlink:href="#linear-gradient-2"/>
    <linearGradient id="linear-gradient-14" x1="261.784" y1="-10.976" x2="258.553" y2="-8.307" xlink:href="#linear-gradient-2"/>
    <linearGradient id="linear-gradient-15" x1="5.964" y1="2.455" x2="6.048" y2="3.363" xlink:href="#linear-gradient"/>
    <linearGradient id="linear-gradient-16" x1="1.724" y1="0.022" x2="1.19" y2="1.203" xlink:href="#linear-gradient"/>
    <linearGradient id="linear-gradient-17" x1="8.908" y1="-0.344" x2="7.206" y2="3.056" xlink:href="#linear-gradient-2"/>
    <linearGradient id="linear-gradient-18" x1="3.146" y1="0.338" x2="3.134" y2="-0.979" xlink:href="#linear-gradient"/>
    <linearGradient id="linear-gradient-19" x1="-10.265" y1="7.488" x2="-10.275" y2="5.751" xlink:href="#linear-gradient"/>
    <linearGradient id="linear-gradient-20" x1="-33.249" y1="9.013" x2="-30.44" y2="10.596" xlink:href="#linear-gradient-2"/>
    <linearGradient id="linear-gradient-21" x1="-26.224" y1="11.113" x2="-24.258" y2="12.853" xlink:href="#linear-gradient-2"/>
    <linearGradient id="linear-gradient-22" x1="-37.75" y1="12.771" x2="-34.304" y2="15.193" xlink:href="#linear-gradient-2"/>
    <linearGradient id="linear-gradient-23" x1="6.418" y1="0.277" x2="5.684" y2="-1.181" xlink:href="#linear-gradient-2"/>
    <linearGradient id="linear-gradient-24" x1="1.84" y1="0.11" x2="2.885" y2="0.11" gradientUnits="objectBoundingBox">
      <stop offset="0" stop-color="#fba48a"/>
      <stop offset="1" stop-color="#fbc1a0"/>
    </linearGradient>
    <linearGradient id="linear-gradient-25" x1="6.215" y1="-1.041" x2="6.764" y2="-0.069" gradientUnits="objectBoundingBox">
      <stop offset="0" stop-color="#e5b5d4"/>
      <stop offset="1" stop-color="#fff"/>
    </linearGradient>
    <linearGradient id="linear-gradient-26" x1="1.883" y1="-0.511" x2="2.875" y2="-0.511" gradientUnits="objectBoundingBox">
      <stop offset="0" stop-color="#e6cede"/>
      <stop offset="1" stop-color="#fff"/>
    </linearGradient>
    <linearGradient id="linear-gradient-27" x1="6.065" y1="-0.916" x2="6.072" y2="0.257" xlink:href="#linear-gradient-2"/>
    <linearGradient id="linear-gradient-28" x1="6.148" y1="5.658" x2="7.146" y2="5.658" xlink:href="#linear-gradient-24"/>
    <linearGradient id="linear-gradient-29" x1="5.918" y1="2.508" x2="6.931" y2="2.508" xlink:href="#linear-gradient-24"/>
    <linearGradient id="linear-gradient-30" x1="-8.268" y1="0.5" x2="-7.268" y2="0.5" gradientUnits="objectBoundingBox">
      <stop offset="0" stop-color="#18303f"/>
      <stop offset="1" stop-color="#4dd0e1"/>
    </linearGradient>
    <linearGradient id="linear-gradient-31" x1="6.952" y1="-3.189" x2="7.123" y2="-6.02" xlink:href="#linear-gradient-2"/>
    <linearGradient id="linear-gradient-32" x1="-26.839" y1="-0.137" x2="-25.889" y2="-0.137" xlink:href="#linear-gradient-24"/>
    <linearGradient id="linear-gradient-33" x1="-37.97" y1="3.263" x2="-36.99" y2="3.263" gradientUnits="objectBoundingBox">
      <stop offset="0" stop-color="#fcfaf8"/>
      <stop offset="0.994" stop-color="#fff"/>
      <stop offset="1" stop-color="#c245ba"/>
    </linearGradient>
    <linearGradient id="linear-gradient-34" x1="-80.812" y1="5.228" x2="-79.76" y2="5.228" gradientUnits="objectBoundingBox">
      <stop offset="0" stop-color="#ffeadb"/>
      <stop offset="0.994" stop-color="#efbeec"/>
      <stop offset="1" stop-color="#c245ba"/>
    </linearGradient>
    <linearGradient id="linear-gradient-35" x1="-21.179" y1="1.157" x2="-20.987" y2="0.425" xlink:href="#linear-gradient-30"/>
    <linearGradient id="linear-gradient-36" x1="-62.718" y1="1.316" x2="-62.659" y2="-0.174" gradientUnits="objectBoundingBox">
      <stop offset="0"/>
      <stop offset="0.087" stop-color="#070301"/>
      <stop offset="0.217" stop-color="#1b0e06"/>
      <stop offset="0.372" stop-color="#3b210e"/>
      <stop offset="0.547" stop-color="#693a1a"/>
      <stop offset="0.739" stop-color="#a35a28"/>
      <stop offset="0.942" stop-color="#e98139"/>
      <stop offset="1" stop-color="#ff8d3f"/>
    </linearGradient>
  </defs>
  <g id="Grupo_179451" data-name="Grupo 179451" transform="translate(12474.199 12220.43)">
    <g id="Grupo_179450" data-name="Grupo 179450">
      <g id="Grupo_179449" data-name="Grupo 179449">
        <path id="Elipse_4711-2" data-name="Elipse 4711-2" d="M482.353-58.64A178.742,178.742,0,1,1,303.611,120.1h0A178.742,178.742,0,0,1,482.353-58.64Z" transform="translate(-12777.811 -12161.789)" fill="#0f2771"/>
        <g id="Grupo_78300" data-name="Grupo 78300" transform="translate(-12777.811 -12161.789)">
          <path id="Trazado_113504" data-name="Trazado 113504" d="M656.038,174.764a162.122,162.122,0,0,1-150.08,123.748,10.816,10.816,0,0,0-10.273,9.938v.008a10.828,10.828,0,0,0,9.865,11.709,11.221,11.221,0,0,0,1.335.031c81.6-3.56,151.3-61.331,170.26-140.4a10.821,10.821,0,0,0-8.1-12.986h0a10.716,10.716,0,0,0-1.594-.246h0A10.807,10.807,0,0,0,656.038,174.764Z" fill="#4dd0e1"/>
        </g>
        <g id="Grupo_137219" data-name="Grupo 137219" transform="translate(-12777.811 -12161.789)">
          <g id="Grupo_152001" data-name="Grupo 152001">
            <g id="Grupo_179427" data-name="Grupo 179427">
              <g id="Grupo_179426" data-name="Grupo 179426" clip-path="url(#clip-path)">
                <g id="Grupo_179425" data-name="Grupo 179425">
                  <path id="Trazado_210527" data-name="Trazado 210527" d="M477.155,39.939l39-13.638a87.858,87.858,0,0,0,6.329-7.791c6.377-8.722,15.132-23.533,14.1-38.006-.5-6.988-4.964-13.027-11.662-17.526-.578-.4-1.157-.77-1.767-1.14a8.308,8.308,0,0,0-3.936-1.269c-3.421-.209-6.683,1.526-11.55.659a84.037,84.037,0,0,1-8.786-2.217c-11.855-3.454-25.927-8.417-34.585-2.6a16.921,16.921,0,0,0-3.47,3.085C443.1-19.865,477.155,39.939,477.155,39.939Z" fill="#4dd0e1"/>
                  <path id="Trazado_210528" data-name="Trazado 210528" d="M480.353-30.757c-.241-.658-5.88-15.918,18.569-10.2l-.032-.032c-11.855-3.454-25.927-8.417-34.585-2.6a16.921,16.921,0,0,0-3.47,3.085Z" fill="#924172" opacity="0.6" style="mix-blend-mode: multiply;isolation: isolate"/>
                  <path id="Trazado_210529" data-name="Trazado 210529" d="M518.891,29.572c32.894,28.039,34.253,74.852,34.253,74.852S525.438,31.357,508.1,28.282,518.891,29.572,518.891,29.572Z" fill="#4dd0e1"/>
                  <path id="Trazado_210530" data-name="Trazado 210530" d="M481.236,102.876l-.868-37.235,11.695,37.765,2.907,9.43-1.895-9.365L486.617,71.44l11.775,32.288L517.314,155.6s19.277-22.489,25.7-44.978c3.759-13.156-5.124-38.408-13.156-57.09-5.493-12.819-10.586-22.553-10.923-23.2l3.486,4.466c-.145-.723-.257-1.51-.353-2.345-.675-5.719-.547-14.072,1.188-26.248,0,0-42.89,19.276-56.351,47.484-13.461,28.191,15.068,81.024,15.068,81.024Z" fill="#4dd0e1"/>
                  <path id="Trazado_210531" data-name="Trazado 210531" d="M475.549,102.587l5.687.289-.868-37.235,11.695,37.765,1.012.065,5.317.257L539.8,105.8s-7.952-58.263-27.613-75.676a21.573,21.573,0,0,0-2.523-1.943,17.647,17.647,0,0,0-3.823-1.992s-19.051-2.314-28.69,13.75S475.549,102.587,475.549,102.587Z" fill="#924172" opacity="0.6" style="mix-blend-mode: multiply;isolation: isolate"/>
                  <path id="Trazado_210532" data-name="Trazado 210532" d="M491.613-22.709l25.7,44.095,5.173-2.876c6.377-8.722,15.132-23.533,14.1-38.006-.546-7.582-5.767-14.056-13.429-18.666,6.184,9.574-7.454,18.666-7.454,18.666Z" fill="#924172" opacity="0.5" style="mix-blend-mode: multiply;isolation: isolate"/>
                  <path id="Trazado_210533" data-name="Trazado 210533" d="M492.167,588.446s-4.659,3.223-11.408,6.965h-.011a129.5,129.5,0,0,1-13.834,6.673,67.4,67.4,0,0,1-13.01,3.963c-1.292.237-2.571.419-3.825.558-15.778,1.821-29.094-2.844-29.351-5.341-.213-2.019,13.23-7.663,26.112-15.452A103.426,103.426,0,0,0,459,577.336c14.558-12.116,24.026-40.73,23.183-70.331-.585-20.413-13.66-75.575-21.719-107.84-2.876-11.489-5.107-20.075-5.91-23.151l-.327-1.241,5.28.66,17.213,2.134L493.96,379.7s-.875,61.246-1.661,109.288c-.5,29.957-.953,54.782-1.153,56.428-.491,4.041.862,38.934,1,42.695Z" fill-rule="evenodd" fill="url(#linear-gradient)"/>
                  <path id="Trazado_210534" data-name="Trazado 210534" d="M483.917,580.113l-17,21.971a67.4,67.4,0,0,1-13.01,3.963c-1.292.237-2.571.419-3.825.558-15.778,1.821-29.094-2.844-29.351-5.341-.213-2.019,13.23-7.663,26.112-15.452,3.213,4.415,9.751,4.406,16.464,2.794C473.224,586.218,483.509,580.336,483.917,580.113Z" fill="#3a0f22" fill-rule="evenodd"/>
                  <path id="Trazado_210535" data-name="Trazado 210535" d="M508.573,577.61l-16.424,10.5-11.39,7.3h-.011a129.5,129.5,0,0,1-13.834,6.673,67.4,67.4,0,0,1-13.01,3.963c-1.292.237-2.571.419-3.825.558l-.1-.491A104.681,104.681,0,0,0,463.3,588.606c16.086-25.66,31.831-66.662,28.216-96.948-1.176-9.862-.656-9.174.779-2.668C496.5,508.106,508.573,577.61,508.573,577.61Z" opacity="0.8" fill="url(#linear-gradient-2)" style="mix-blend-mode: multiply;isolation: isolate"/>
                  <path id="Trazado_210536" data-name="Trazado 210536" d="M483,451.775s-8.038-48.5-12.969-51.371c-1.881-1.094-5.645-1.34-9.559-1.239-2.876-11.489-5.107-20.075-5.91-23.151l4.953-.581,16.868-1.979.345,4.113Z" fill-rule="evenodd" opacity="0.8" fill="url(#linear-gradient-3)" style="mix-blend-mode: multiply;isolation: isolate"/>
                  <path id="Trazado_210537" data-name="Trazado 210537" d="M515,573.486c2.621,9.809-8.4,38.285-23.049,42.892s-36.624,2.741-39.673-3.217c-1.673-3.275,7.666-13.092,17.473-25.258,8.03-9.97,16.376-21.522,19.209-32.363,4.859-18.591-4.967-109.469-9.666-149.794-1.39-11.852-2.338-19.335-2.338-19.335l42.7-.48s6.721,8.279,9.992,27.35a128.789,128.789,0,0,1,1.734,20.07c.37,33.464-24.264,90.273-22.785,109.046.937,11.874,2.2,17.235,3.66,22.061C513.116,567.26,514.032,569.875,515,573.486Z" fill-rule="evenodd" fill="url(#linear-gradient-4)"/>
                  <path id="Trazado_210538" data-name="Trazado 210538" d="M529.651,413.281C515.435,406.9,498,402.564,479.3,405.746c-1.39-11.852-2.338-19.335-2.338-19.335l42.7-.48S526.38,394.21,529.651,413.281Z" fill-rule="evenodd" opacity="0.8" fill="url(#linear-gradient-5)" style="mix-blend-mode: multiply;isolation: isolate"/>
                  <path id="Trazado_210539" data-name="Trazado 210539" d="M466.321,183.286c-.2,2.31-.414,4.53-.658,6.639-.916,7.863-2.219,14.117-4.116,17.1-.051.141-.153.191-.259.33l0,.055a2.553,2.553,0,0,1-.911.586,14.931,14.931,0,0,1-3.355,1.121l-1.039.249a100.032,100.032,0,0,1-10.5,1.421,90.169,90.169,0,0,1-18.864-.4l-.142-.25-2.968-.991-.042-.046-.02-.034-5.31-8.392-2.269-3.6,4.68-12.94,6.867.492s-1.077-6.136,4.16-8.5a10.95,10.95,0,0,1,3.941-.906l0-.044c.134-.259.467-2.153.975-5.165.064-.428.142-.888.22-1.37,1.65-10.3,4.563-30.9,6.935-48,.289-2.129.587-4.212.859-6.209.592-4.312,1.132-8.239,1.587-11.531.475-3.456.849-6.209,1.086-7.943.172-1.306.273-2.03.273-2.03l.228.309,3.075,3.835,2.128,2.619,9.254,11.362,1.752,2.17,3.451,4.273s.063,1.924.149,5.219c.013.895.008,1.922.053,3.061.179,9.462.3,25.556-.292,41.143l-.02.419C467.018,172.829,466.758,178.283,466.321,183.286Z" fill="url(#linear-gradient-6)"/>
                  <path id="Trazado_210540" data-name="Trazado 210540" d="M551.273,89.163c-1.757,13.929-1.386,24.46-7.788,44.805-1.862,5.929-4.3,12.693-7.553,20.621-6.734,14.1-14.965,26.464-16.689,40.87a44.857,44.857,0,0,0,.242,12.556c.178,1.123.4,2.271.676,3.433a15.889,15.889,0,0,1-.135,6.763,30.489,30.489,0,0,1-2.491,7.081l-1.829,6.406v.044a83.563,83.563,0,0,1-28.889,13,44.235,44.235,0,0,1-12.575,1.565,36.688,36.688,0,0,1-18.778-7.542,10.234,10.234,0,0,1-1.042-.834c-.383-.316-.71-.63-1-.887a9.264,9.264,0,0,1-1.13-1.092,1.2,1.2,0,0,0,.113-.281c.342-.923,1.525-3.969,2.947-8.087.28-.77.573-1.6.8-2.413.684-1.845,1.319-3.824,1.9-5.873.464-1.391.885-2.795,1.295-4.222.134-.5.279-.992.413-1.494.586-2.092,1.083-4.189,1.52-6.177l.008-.154c.336-1.486.6-2.931.8-4.291.179-1.228.3-2.382.351-3.429.3-6.379-2.61-19.415-7.992-27.2-.373-.515-.691-1.016-1.053-1.53-1.294-1.829-4.237-4.718-6.7-7.563-.806-.933-1.568-1.875-2.2-2.766-.279-.4-.537-.776-.751-1.151-.838-1.42-1.209-2.653-.727-3.513,1.363-2.431,2.592-4.813,3.684-7.1a105.126,105.126,0,0,0,5.988-15.351c2.495-8.34,2.923-14.316,2.332-16.5-1.349-4.835-.946-9.354-2.822-13.331-2.551-5.333-4.835-9.086-4.835-9.086s.12-.436.3-1.212c.892-3.2,3.563-11.745,6.82-11.977,7.073-.557,13.724-.881,19.984-1.068l.055,0c3.352-.138,6.546-.185,9.651-.225,11.469-.149,21.5.185,30.078.737.937.045,1.873.089,2.752.186l.044,0c.2.01.394.064.593.073.441.021.835.084,1.221.1.639.031,1.278.061,1.914.147l.242.011c.4.019.792.082,1.178.1,1.768.184,3.427.362,5.04.594,18.942,2.227,21.177,6.077,23.44,7.024l.1.005C551.121,89.1,551.273,89.163,551.273,89.163Z" fill="url(#linear-gradient-7)"/>
                  <path id="Trazado_210541" data-name="Trazado 210541" d="M521.047,81.215c-.006.01-.006.015-.012.025-1.972,4.3-5.708,8.677-10.053,12.531-9.5,8.437-21.921,14.385-25.208,11.724-4.045-3.275-4.313-18.506-4.264-24.275a2.994,2.994,0,0,0,2.651-1.089l.025-.2L486.1,63.259l1.011-9.313.572-5.268,5.968-10.944,11.632-21.345s.564,8.274,1.527,18.835c.068.8.144,1.613.22,2.435.833,8.868,1.923,18.964,3.175,27.024,1.1,7.1,2.34,12.629,3.638,14.352a5.366,5.366,0,0,0,3.214,1.865c.184.044.377.083.572.118a16.751,16.751,0,0,0,3.152.2Z" fill="url(#linear-gradient-8)"/>
                  <path id="Trazado_210542" data-name="Trazado 210542" d="M517.651,80.958l0,.057a.206.206,0,0,0-.066.169c-1.667,3.6-3.627,7.306-5.767,11.173-.122.166-.249.39-.371.557l0,.058c-.128.281-.312.5-.44.784-9.087,15.673-21.856,31.344-36.531,30.3a27.934,27.934,0,0,1-7.01-1.369,10.211,10.211,0,0,1-1.246-.4,29.038,29.038,0,0,1-8.729-5.132,30.5,30.5,0,0,1-4.184-3.938,54.374,54.374,0,0,1-7.218-10.295c.807-6.06,1.339-10,1.339-10l.274.3c.9-3.178,3.55-11.738,6.783-11.986,7.1-.525,13.73-.842,20.01-1.06l.058,0c3.342-.129,6.507-.15,9.617-.232l.593-5.206.371-2.974.884-7.665.1-.8.112-1.146,0-.057.413-3.834,0-.058.432-4.235,11.46-14.755,3.063-3.939,5.236-.037a1.275,1.275,0,0,0,.036.462,2.694,2.694,0,0,0,.043.289,3.4,3.4,0,0,0,.077.809,4.373,4.373,0,0,0,.016.863c.2,1.794.342,3.7.6,5.609a10.478,10.478,0,0,0,.109,1.328,2.907,2.907,0,0,0,.083.694l.122,1.041c.03.577.121,1.1.208,1.678l-.006.115q.054.693.107,1.386c.08.751.161,1.445.241,2.2.134.812.21,1.621.344,2.432.456,3.7.921,7.234,1.4,10.535a87.376,87.376,0,0,0,1.993,10.1,14.854,14.854,0,0,0,1.637,4.277,4.67,4.67,0,0,0,1.664,1.287,6.1,6.1,0,0,0,1.527.533l.058,0C517.252,80.881,517.479,80.95,517.651,80.958Z" fill="#f6f6f6" opacity="0.8" style="mix-blend-mode: multiply;isolation: isolate"/>
                  <path id="Trazado_210543" data-name="Trazado 210543" d="M481.272,84.833s.409,15.759,6.3,18.549S514.5,90.388,514.5,90.388s-22.2,19.242-28.546,15.426C481.146,102.925,481.272,84.833,481.272,84.833Z" opacity="0.8" fill="url(#linear-gradient-9)" style="mix-blend-mode: multiply;isolation: isolate"/>
                  <path id="Trazado_210544" data-name="Trazado 210544" d="M452.7,133.354a105.126,105.126,0,0,1-5.988,15.351,169.276,169.276,0,0,0-3.069-28.073c.289-2.129.587-4.212.859-6.209Z" fill="#afafaf" opacity="0.8" style="mix-blend-mode: multiply;isolation: isolate"/>
                  <path id="Trazado_210545" data-name="Trazado 210545" d="M462.445,199.533c-.051,1.047-.172,2.2-.351,3.429-.2,1.36-.465,2.8-.8,4.291l-.008.154a2.553,2.553,0,0,1-.911.586,14.931,14.931,0,0,1-3.355,1.121l-1.039.249a100.032,100.032,0,0,1-10.5,1.421,90.169,90.169,0,0,1-18.864-.4l-.142-.25-2.968-.991-.042-.046-.02-.034c5.161-4.028,12.366-8.544,17.87-9.353,4.026-.592,4.582-4.618,3.869-9.124v-.012a53.952,53.952,0,0,0-3.8-11.963c.382.316,1,.423,1.957-.051a7.4,7.4,0,0,0,1.081-.688c1.146-.873,1.984-6.641,2.288-14.633,2.459,2.845,5.4,5.734,6.7,7.563.362.514.68,1.015,1.053,1.53C459.835,180.118,462.749,193.154,462.445,199.533Z" fill="#e8e8e8" opacity="0.8" style="mix-blend-mode: multiply;isolation: isolate"/>
                  <path id="Trazado_210546" data-name="Trazado 210546" d="M591.966,195.554c-10.441.353-10.1-18.657-10.1-18.657s-.112-.182-.339-.513c-3.118-4.809-27.6-41.985-38.365-41.924a4.085,4.085,0,0,0-1.3.214c-8.176,2.868.434-26.5,4.8-40.088,1.3-4.024,2.217-6.663,2.217-6.663a8.311,8.311,0,0,1,3.142,1.5c12.822,8.783,42.954,52.92,50.6,59.987,8.378,7.731,13.485,9.466,14.206,18.434S602.418,195.213,591.966,195.554Z" fill="url(#linear-gradient-10)"/>
                  <path id="Trazado_210547" data-name="Trazado 210547" d="M545.1,108.227l-1.612,25.741c-1.862,5.929-4.3,12.693-7.553,20.621-8.6,18.021-19.67,33.218-16.447,53.426l-10.08,2.269s.376-11.831-3.156-20.447-33.1-19.438-33.1-19.438-18.7,1.931-28.649-9.928a5.973,5.973,0,0,1-.89-1.257c.043.035.086.07.139.106,6.431,7.918,28.605,8.034,28.605,8.034s24.062,7.91,35.8,6.028,28.378-27.6,32.163-39.819A132.706,132.706,0,0,0,545.1,108.227Z" fill="#e8e8e8" opacity="0.8" style="mix-blend-mode: multiply;isolation: isolate"/>
                  <path id="Trazado_210548" data-name="Trazado 210548" d="M545.5,430.9s-52.967,8.012-77.705,5.287l-1.395-.165c-.889-.109-1.767-.228-2.611-.357a90.847,90.847,0,0,1-10.3-2.135c-14.6-3.92-21.072-9.9-21.072-9.9s-4.075-102.935,1.907-130.456c4.581-21.061,18.135-62.654,24.244-81.025a.039.039,0,0,0,.012-.032c.193-.577.374-1.131.554-1.653,1.546-4.63,2.484-7.4,2.484-7.4,4.407,12.511,51.065,3.625,57.532,2.331.49-.1.747-.152.747-.152s2.228,3.75,5.546,9.915c2.719,5.055,6.177,11.746,9.746,19.337,7.892,16.774,16.324,37.958,18.551,55.666C558.742,329.963,545.5,430.9,545.5,430.9Z" fill="#feca2e" fill-rule="evenodd"/>
                  <path id="Trazado_210549" data-name="Trazado 210549" d="M535.185,234.492a33.256,33.256,0,0,0-5.033,1.118c-1.444.638-5.607,8.048-9.209,9.71a5.285,5.285,0,0,1-5.892-.557l7.791-9.645s-13.862,6.816-19.157,8.541-12.468-3.222-12.468-3.222l21.465-19.893s-19.558,5.131-22.37,2.038c0,0,20.185-9.474,20.6-9.454.264.012,8.392,1.161,14.524,2.027C528.158,220.21,531.616,226.9,535.185,234.492Z" fill="#924172" fill-rule="evenodd" opacity="0.6" style="mix-blend-mode: multiply;isolation: isolate"/>
                  <path id="Trazado_210550" data-name="Trazado 210550" d="M587.746,163.826c-2.453,8.154-.464,9.751-.464,9.751l-5.754,2.807c-3.118-4.809-27.6-41.985-38.365-41.924l1.238-19.5c.454,18.065,36.262,47.587,36.262,47.587s8.411-4.91,15.968-5.677S590.2,155.672,587.746,163.826Z" fill="#f6f6f6" opacity="0.8" style="mix-blend-mode: multiply;isolation: isolate"/>
                  <path id="Trazado_210551" data-name="Trazado 210551" d="M453.485,433.533c-14.6-3.92-21.072-9.9-21.072-9.9s-4.075-102.935,1.907-130.456c4.581-21.061,18.135-62.654,24.244-81.025C446.158,266.493,437,278.845,437.315,330.9,437.49,359.7,446.475,403.593,453.485,433.533Z" fill="#924172" fill-rule="evenodd" opacity="0.6" style="mix-blend-mode: multiply;isolation: isolate"/>
                  <path id="Trazado_210552" data-name="Trazado 210552" d="M501.078,270.578c-3.824,5.638-7.726,14.054-11.458,24.256-3.517,9.617-6.9,20.841-9.945,32.831-9.3,36.584-15.5,80.4-13.278,108.36-.889-.109-1.767-.228-2.611-.357l-1.961-145.7s4.923,7,17.243.821C488.311,286.148,497.207,275.573,501.078,270.578Z" fill="#924172" fill-rule="evenodd" opacity="0.6" style="mix-blend-mode: multiply;isolation: isolate"/>
                  <path id="Trazado_210553" data-name="Trazado 210553" d="M515,573.486c2.621,9.809-8.4,38.285-23.049,42.892s-36.624,2.741-39.673-3.217c-1.673-3.275,7.666-13.092,17.473-25.258.483,5.033,32.529,15.231,42.209-22.559a8.53,8.53,0,0,1,.3-.886C513.116,567.26,514.032,569.875,515,573.486Z" fill="#591c3a" fill-rule="evenodd"/>
                  <path id="Trazado_210554" data-name="Trazado 210554" d="M519.146,205.392c-6.467,1.294-53.125,10.18-57.532-2.331,0,0,.31-1.906-1.235,2.725l-1.73-5.152a22.07,22.07,0,0,0,3.445,2.328c16.8,9.225,45.26-2.018,57.149-7.5A43.848,43.848,0,0,0,519.146,205.392Z" opacity="0.8" fill="url(#linear-gradient-11)" style="mix-blend-mode: multiply;isolation: isolate"/>
                  <path id="Trazado_210555" data-name="Trazado 210555" d="M552.022,89.419c-4.919,4.515-6.741,14.488-6.952,15.681.083-.813.609-5.613,1.593-10.514,1.3-4.024,2.217-6.663,2.217-6.663A8.311,8.311,0,0,1,552.022,89.419Z" opacity="0.8" fill="url(#linear-gradient-12)" style="mix-blend-mode: multiply;isolation: isolate"/>
                  <path id="Trazado_210556" data-name="Trazado 210556" d="M449.635,206.5a89.9,89.9,0,0,0-4.454-15.927c-2.907-7.36-7.338-14.484-13.612-14.451a10.95,10.95,0,0,1,3.941-.906l0-.044c.134-.259.467-2.153.975-5.165a24.07,24.07,0,0,1,6.848,8.552C449.337,190.252,449.635,206.5,449.635,206.5Z" opacity="0.8" fill="url(#linear-gradient-13)" style="mix-blend-mode: multiply;isolation: isolate"/>
                  <path id="Trazado_210557" data-name="Trazado 210557" d="M440.7,177.119s.272.554.68,1.49A2.33,2.33,0,0,1,440.7,177.119Z" opacity="0.8" fill="url(#linear-gradient-14)" style="mix-blend-mode: multiply;isolation: isolate"/>
                  <path id="Trazado_210558" data-name="Trazado 210558" d="M356.451,214.52l-47.413,11.364s.593-.347,1.582-.942a.119.119,0,0,0,.118-.048c3.755-2.229,12.527-7.327,14.413-8.1,1.335-.533,10.848-1.194,19.037-1.635C350.748,214.773,356.451,214.52,356.451,214.52Z" fill="url(#linear-gradient-15)"/>
                  <path id="Trazado_210559" data-name="Trazado 210559" d="M447.611,197.559l0,.011a14.309,14.309,0,0,1,.5,4.859,5.585,5.585,0,0,1-.2.98c-.551,2.029-7.369,4.089-16.714,6.067-22.24,4.634-60.182,10.366-61.665,10.585-2.1.3-3.281,8.835-8.023,12.861a1.631,1.631,0,0,1-.284.252c-4.965,3.909-17.656,3.64-22.608,7.253-5.981,4.366-9.862,4.3-9.862,4.3s3.139-8,5.149-9.093c.6-.293,2.239-.865,4.2-1.641,4.472-1.637,14.846-5.689,15.021-7.442.238-2.541-51.43,9.954-56.5.613-.562-.324,12.516-1.36,17.61-3.032a.114.114,0,0,0,.113-.052c8.3-2.67,21.874-6.593,33.453-9.731,10.676-2.921,19.617-5.2,21.174-5.315,2.519-.137,22.473-11.842,40.749-20.238,6.664-3.07,12.9-5.871,17.553-7.876,1.656-.71,3.106-1.318,4.315-1.8,6.287-.17,10.827,6.212,13.461,11.4,0,.022.007.034.019.042A39.178,39.178,0,0,1,447.611,197.559Z" fill="url(#linear-gradient-16)"/>
                  <path id="Trazado_210560" data-name="Trazado 210560" d="M447.611,197.559c-2.865-7.7-8.708-14.807-20.337-16.635,1.656-.71,3.106-1.318,4.315-1.8,6.287-.17,10.827,6.212,13.461,11.4,0,.022.007.034.019.042A39.178,39.178,0,0,1,447.611,197.559Z" opacity="0.8" fill="url(#linear-gradient-17)" style="mix-blend-mode: multiply;isolation: isolate"/>
                  <path id="Trazado_210561" data-name="Trazado 210561" d="M517.47,214.707c-37.983,13.134-54.258,8.553-54.258,8.553s24.373,9.2,45.658,3.3S517.47,214.707,517.47,214.707Z" fill="#924172" opacity="0.6" style="mix-blend-mode: multiply;isolation: isolate"/>
                  <path id="Trazado_210562" data-name="Trazado 210562" d="M536.582,244.127c-24.121,16.521-30.49,32.567-30.49,32.567s5.174-18.231,17.833-28.124S536.582,244.127,536.582,244.127Z" fill="#f8bf9c" opacity="0.74" style="mix-blend-mode: soft-light;isolation: isolate"/>
                  <g id="Grupo_179421" data-name="Grupo 179421">
                    <path id="Trazado_210563" data-name="Trazado 210563" d="M611.693,179.466a34.911,34.911,0,0,1-4.714,6.931c-2.353,2.56-4.639,4.881-6.441,6.562-.487.484-.927.9-1.33,1.251-.265.23-.577.513-.932.794-4.623,3.623-16.947,11.042-27.622,17.237-3.873,2.256-7.527,4.323-10.468,6.005a.542.542,0,0,1-.16.125c-2.462,1.384-4.46,2.515-5.786,3.247l-6.537-5.336a52.6,52.6,0,0,0,5.284-6.153c3.177-4.111,6.819-9.4,10.622-14.821.95-1.39,1.955-2.778,2.948-4.155,1.574-2.222,3.181-4.432,4.774-6.564a123.208,123.208,0,0,1,8.489-10.374c.116-.127.279-.295.4-.433.651-.688,1.312-1.34,1.97-1.95.011,0,.012-.01.022-.01.452-.442.9-.851,1.341-1.25l.033.013a5.83,5.83,0,0,1,.68-.608,15.816,15.816,0,0,1,3.826-2.435,43.148,43.148,0,0,1,8.9-2.8,43.8,43.8,0,0,1,10.828-1.052C617.145,164.222,615.284,172.691,611.693,179.466Z" fill="url(#linear-gradient-18)"/>
                    <g id="Grupo_179420" data-name="Grupo 179420">
                      <g id="Grupo_179419" data-name="Grupo 179419">
                        <path id="Trazado_210564" data-name="Trazado 210564" d="M551.731,211.64l-24.444.051L508.65,208.3s-.979.555-2.5,1.411c-2.022,1.17-4.936,2.887-7.818,4.743-5.378,3.479-10.45,7.375-8.708,8.686a2.375,2.375,0,0,0,.489.273l.184.072a4.224,4.224,0,0,0,1.08-.049c3.259-.523,9.239-4.024,12.943-6.03a11.855,11.855,0,0,1,3.174-1.4c.339,0,.95.07,1.7.1,1.912.1,4.737.262,6.024.336.529-.051.808-.112.932-.107a.651.651,0,0,1-.307.136l-.1.046c-.768.339-2.574,1.169-6.668,3.193-.489.277-1.016.541-1.593.827l-.1.045c-.066.059-.154.068-.219.128a6.814,6.814,0,0,0-.928.532,27.53,27.53,0,0,0-3.232,2.1,3.822,3.822,0,0,0-.5.4c-.882.635-1.756,1.358-2.63,2.082-5.67,4.894-10.582,11.228-9.146,13.991a.821.821,0,0,0,.127.218c.119.131.238.263.358.393a2.354,2.354,0,0,0,.695.4l8.8-8.268,1.178-1.072a4.381,4.381,0,0,1-.37.408c-.014.037-.066.06-.094.134-.211.216-.45.505-.726.78-.08.1-.109.17-.188.267a1.885,1.885,0,0,0-.211.215c-.066.06-.146.156-.211.216-.08.1-.108.171-.188.267s-.146.156-.225.252c-.159.193-.305.349-.464.542l-.145.156a.15.15,0,0,1-.08.1.948.948,0,0,1-.188.267c-.638.771-1.291,1.58-1.841,2.343-.065.06-.093.134-.159.193a1.851,1.851,0,0,1-.109.171c-.065.06-.094.133-.159.193-.029.074-.094.133-.137.244-.051.022-.08.1-.108.17a11.612,11.612,0,0,0-.787,1.266.683.683,0,0,0-.137.244l-.143.369a2.182,2.182,0,0,0-.189.819,14.631,14.631,0,0,0,13.645-3.126,51.471,51.471,0,0,1,10.537-6.832c.512-.227.987-.467,1.462-.708s.95-.482,1.411-.685a11.674,11.674,0,0,1,2.864-.93c1.812-.954,3.288-1.7,3.983-2.067a.039.039,0,0,1,.051-.023l.1-.045a2.573,2.573,0,0,1,.321-.173c-.21.216-3,2.7-6.189,5.8a3.943,3.943,0,0,1-.342.334c-.29.312-.617.61-.908.923-1.025,1-2.064,2.044-3.015,3.078-.938.995-1.809,1.931-2.578,2.823l-.014.036a5.549,5.549,0,0,0-.413.519c-1.291,1.581-2.129,2.87-2.179,3.657a.417.417,0,0,0,0,.213c.137,1.072,1.359,1.205,2.971.767a19.46,19.46,0,0,0,2.145-.825,18.015,18.015,0,0,0,6.321-4.6c2.541-3.389,4.137-5.87,4.137-5.87s15.785-3.062,21.255-6.889c1.488-.994,5.316-5.717,6.665-6.681C558.259,219.419,551.731,211.64,551.731,211.64Zm-49.568,19.577c-.014.037-.051.023-.065.059l-.1.045a.3.3,0,0,0,.131-.119Z" fill="url(#linear-gradient-19)"/>
                        <path id="Trazado_210565" data-name="Trazado 210565" d="M517.856,221.475a48.776,48.776,0,0,0-10.019,7.692c-.643.622-10.127,9.113-12.794,12.034a.015.015,0,0,0,0-.014c-.505-1.694,6.926-9.78,7.216-10.092l-1.565,1.472c.995-.974,1.982-1.913,2.913-2.765a32.628,32.628,0,0,1,3.85-3.126A70.976,70.976,0,0,1,517.856,221.475Z" opacity="0.8" fill="url(#linear-gradient-20)" style="mix-blend-mode: multiply;isolation: isolate"/>
                        <path id="Trazado_210566" data-name="Trazado 210566" d="M514.509,232.766a19.647,19.647,0,0,1-3.4-.086,14.13,14.13,0,0,1-3.213-.691,28.55,28.55,0,0,1-4.295-2.171,22.461,22.461,0,0,1-3.722-3.985c-5.67,4.894-10.582,11.228-9.146,13.991a.821.821,0,0,0,.127.218c.119.131.238.263.358.393a2.354,2.354,0,0,0,.695.4l8.8-8.268,1.192-1.109-.014.037a4.381,4.381,0,0,1-.37.408c-.014.037-.066.06-.094.134-.211.216-.45.505-.726.78-.08.1-.109.17-.188.267a1.885,1.885,0,0,0-.211.215c-.066.06-.146.156-.211.216-.08.1-.108.171-.188.267s-.146.156-.225.252c-.159.193-.305.349-.464.542l-.145.156a.15.15,0,0,1-.08.1.948.948,0,0,1-.188.267c-.638.771-1.291,1.58-1.841,2.343-.065.06-.093.134-.159.193a1.851,1.851,0,0,1-.109.171c-.065.06-.094.133-.159.193-.029.074-.094.133-.137.244-.051.022-.08.1-.108.17a11.612,11.612,0,0,0-.787,1.266.683.683,0,0,0-.137.244l-.143.369a2.182,2.182,0,0,0-.189.819,14.631,14.631,0,0,0,13.645-3.126,51.471,51.471,0,0,1,10.537-6.832A14.292,14.292,0,0,1,514.509,232.766Zm-12.346-1.549c-.014.037-.051.023-.065.059-.052.023-.066.059-.131.119l.029-.074.1-.045.029-.074Z" opacity="0.8" fill="url(#linear-gradient-21)" style="mix-blend-mode: multiply;isolation: isolate"/>
                        <path id="Trazado_210567" data-name="Trazado 210567" d="M506.151,209.713a8.71,8.71,0,0,0-1.4,3.067c-.4,1.923,2.032,2.865,4.442,3.33-.75-.035-1.361-.1-1.7-.1a11.855,11.855,0,0,0-3.174,1.4c-3.7,2.006-9.684,5.507-12.943,6.03a4.224,4.224,0,0,1-1.08.049l-.184-.072a2.375,2.375,0,0,1-.489-.273c-1.742-1.311,3.33-5.207,8.708-8.686C501.215,212.6,504.129,210.883,506.151,209.713Z" opacity="0.8" fill="url(#linear-gradient-22)" style="mix-blend-mode: multiply;isolation: isolate"/>
                      </g>
                    </g>
                  </g>
                  <path id="Trazado_210568" data-name="Trazado 210568" d="M611.693,179.466a34.911,34.911,0,0,1-4.714,6.931c6.53-10.743,4.2-25.011-24.771-14.575.452-.442.9-.851,1.341-1.25l.033.013a5.83,5.83,0,0,1,.68-.608,15.816,15.816,0,0,1,3.826-2.435,43.148,43.148,0,0,1,8.9-2.8,43.8,43.8,0,0,1,10.828-1.052C617.145,164.222,615.284,172.691,611.693,179.466Z" opacity="0.8" fill="url(#linear-gradient-23)" style="mix-blend-mode: multiply;isolation: isolate"/>
                  <path id="Trazado_210569" data-name="Trazado 210569" d="M536.025,348.385c-23.91,37.958-63.554,47.589-62.147,35.437,7-60.46,50.18-113.828,50.18-113.828-5.431,1.812-10.682,5.52-15.614,10.309,8.793-14.23,18.693-22.476,28.973-17.409C560.936,274.49,549.6,326.829,536.025,348.385Z" fill="#f8bf9c" fill-rule="evenodd" opacity="0.74" style="mix-blend-mode: soft-light;isolation: isolate"/>
                  <path id="Trazado_210570" data-name="Trazado 210570" d="M509.624,54.775c-7.008,11.083-16.02,23.7-26.133,18.586L484.1,71.2c6.082-2.012,14.347-7.926,21.27-14.164,1.565-1.388,3.029-2.855,4.424-4.276a1.633,1.633,0,0,0-.045.519l-.022.112Q509.675,54.081,509.624,54.775Z" fill="#924172" opacity="0.6" style="mix-blend-mode: multiply;isolation: isolate"/>
                  <path id="Trazado_210571" data-name="Trazado 210571" d="M533.6,22.366c.068.212.138.408.208.608C533.742,22.777,533.672,22.575,533.6,22.366Z" fill="#924172" opacity="0.6" style="mix-blend-mode: multiply;isolation: isolate"/>
                  <path id="Trazado_210572" data-name="Trazado 210572" d="M476.3,40.917c-.017.623-1.294,1.093-2.851,1.049s-2.806-.584-2.789-1.207,1.294-1.093,2.852-1.049S476.316,40.294,476.3,40.917Z" fill="#f8bf9c" opacity="0.74" style="mix-blend-mode: soft-light;isolation: isolate"/>
                  <path id="Trazado_210573" data-name="Trazado 210573" d="M447.6,6.41c.023-.007.028.065,0,0Z" fill="#622135"/>
                  <path id="Trazado_210574" data-name="Trazado 210574" d="M517.026,37a27.42,27.42,0,0,1-.839,4.586c-.013.107-.025.212-.085.259-.94,2.8-3.524,6.678-6.884,10.735-1.2,1.415-2.459,2.875-3.818,4.27-6.005,6.262-13.279,12.314-18.79,14.6a9.135,9.135,0,0,1-1.526.565,6.907,6.907,0,0,1-3.6.309c-8.5-1.863-28.5-17.981-29.888-25a13.726,13.726,0,0,1-.3-2.408,1.715,1.715,0,0,1-.053-.437l.007-.054c-.1-1.413-.069-2.919-.031-4.532.185-7.577,1.577-16.622,1.609-17.75.012-1.4-2.262-6.533-2.828-8.921a3.583,3.583,0,0,1-.113-.823c.044-1.666.629-22.022,2.817-23.584s19.117-12.883,41.632-10.144c0,0,4.818.706,13.806,4.732,3.73,1.648,6.272,10.265,7.755,20.475.508,3.728.936,7.663,1.205,11.577.068,1.194.142,2.335.156,3.523.06.385.008.809.067,1.194q.133,3.494.127,6.808c.015,2.481-.062,4.843-.213,6.927l.047.059C517.21,35.079,517.145,36.041,517.026,37Z" fill="url(#linear-gradient-24)"/>
                  <path id="Trazado_210575" data-name="Trazado 210575" d="M454.339,25.9l-4.267-12.458s.251-7.309,6.861-8.306,13.15,2.485,14.359,13.056c.771,6.747-2.764,17.987-2.764,17.987s1.225-5.371.588-7.51C457.444,31.965,454.339,25.9,454.339,25.9Z" opacity="0.8" fill="url(#linear-gradient-25)" style="mix-blend-mode: multiply;isolation: isolate"/>
                  <path id="Trazado_210576" data-name="Trazado 210576" d="M469.878,28.318s-.264.037-.721.085c-1.755.18-6.363.518-9.793-.516-2.093-.631-3.751-1.769-4.049-3.764a14.8,14.8,0,0,1,1.04-6.752c1.266-3.013,3.86-5.586,8.927-4.424,2.154.493,3.319,3.092,3.941,6.015a32.419,32.419,0,0,1,.589,4.476c.111,1.693.111,3.172.09,4.048C469.895,28.014,469.878,28.318,469.878,28.318Z" fill="#fbd3cc"/>
                  <g id="Grupo_179422" data-name="Grupo 179422">
                    <path id="Trazado_210577" data-name="Trazado 210577" d="M481.505,44.857a.048.048,0,0,0-.022.01,4.586,4.586,0,0,0-1.917.195,6.984,6.984,0,0,0-1.559.961.46.46,0,0,1-.017-.223C478.363,43,481.505,44.857,481.505,44.857Z" fill="#924172" opacity="0.6" style="mix-blend-mode: multiply;isolation: isolate"/>
                    <path id="Trazado_210578" data-name="Trazado 210578" d="M481.505,44.857a.048.048,0,0,0-.022.01,4.586,4.586,0,0,0-1.917.195,6.984,6.984,0,0,0-1.559.961.46.46,0,0,1-.017-.223C478.363,43,481.505,44.857,481.505,44.857Z" fill="#762138"/>
                  </g>
                  <path id="Trazado_210579" data-name="Trazado 210579" d="M515.89,3.872c-1.923-8.962-11.173-18.355-25.819-19.983a41.087,41.087,0,0,0-5.82-.23C466.225-15.816,458.844,5.8,458.844,5.8l-6.435,1.325c-.088-.36-2.527,5.435-2.521,5.224.045-1.609.618-22,2.806-23.551a63.178,63.178,0,0,1,37.4-10.473q2.079.1,4.235.363a48.834,48.834,0,0,1,9.85,3.009c.034.015.071.028.105.04,1.19.474,2.481,1.011,3.875,1.633a4.261,4.261,0,0,1,.851.513c.059.043.111.086.166.133s.11.093.165.144.1.085.143.132a7.326,7.326,0,0,1,.588.637,1.106,1.106,0,0,1,.081.1,11.841,11.841,0,0,1,.874,1.274c.076.13.151.261.226.4.09.157.176.321.261.489.043.08.086.168.129.252q.4.813.775,1.757c.067.163.13.327.193.5.091.232.174.472.262.715.056.152.107.308.16.468.42,1.238.808,2.6,1.162,4.044.061.235.115.474.172.712.181.777.358,1.576.52,2.393.03.136.056.276.082.413.086.431.168.866.25,1.309.039.215.078.431.117.65.133.764.261,1.54.379,2.322.044.279.085.559.126.843C515.862,3.671,515.879,3.774,515.89,3.872Z" opacity="0.8" fill="url(#linear-gradient-26)" style="mix-blend-mode: multiply;isolation: isolate"/>
                  <path id="Trazado_210580" data-name="Trazado 210580" d="M466.909,53.681s.545,9.086,9.825,9.347S492.073,51.47,492.073,51.47,469,54.385,466.909,53.681Z" fill="#ba164b"/>
                  <path id="Trazado_210581" data-name="Trazado 210581" d="M489.636-20.349c-4.147.264-13.957.888-22.983,3.371a50.973,50.973,0,0,0-6.879,2.388c-8.95,3.922-10.251,17.953-10.191,26.385.032,3.715.327,6.339.347,6.536L444.692.514s-3.169-34.584,8.237-39.1,38.17,17.717,38.73,18.03A7.427,7.427,0,0,1,489.636-20.349Z" fill="#20575e"/>
                  <path id="Trazado_210582" data-name="Trazado 210582" d="M468.111,52.373s.706,4.549,7.025,5.049c6.173-.16,7.108-1.673,13.188-5.291Z" fill="#fff"/>
                  <path id="Trazado_210583" data-name="Trazado 210583" d="M493.357,51.249s-11.306,3.163-18.562,3.262c-7.365.1-10.106-.928-10.106-.928s3.785-2.942,4.988-2.909,7.735-.495,9.044-.207c2.4.528,4.357,1.376,7.967,1.477A35.128,35.128,0,0,0,493.357,51.249Z" fill="#7f0925"/>
                  <g id="Grupo_179423" data-name="Grupo 179423">
                    <path id="Trazado_210584" data-name="Trazado 210584" d="M486.1,5.808c-1.563,2.34-1.575,24.892-1.575,24.892s.211-2.742,2.461-2.761,19.54,1.714,22.848-2.116,3.577-23.635-5.022-24S486.1,5.808,486.1,5.808Z" opacity="0.8" fill="url(#linear-gradient-27)" style="mix-blend-mode: multiply;isolation: isolate"/>
                    <path id="Trazado_210585" data-name="Trazado 210585" d="M508.464,23.409a4.138,4.138,0,0,1-2.626,2.774c-2.657,1.228-6.835,1.558-10.477,1.569a72.463,72.463,0,0,1-7.314-.355s-.288-6.684,1.661-11.311c.9-2.152,2.292-3.859,4.418-4.24,6.98-1.265,10.852,2.088,12.775,5.563A10.919,10.919,0,0,1,508.464,23.409Z" fill="#fbd3cc"/>
                    <path id="Trazado_210586" data-name="Trazado 210586" d="M485.736,6.373c.222-7.53,11.861-6.892,16.8-6.364,3.246.347,8,4.729,8,4.729a13.745,13.745,0,0,0-9.825-2.058c-3.983.581-15.148,6.835-15.148,6.835Z" fill="#3a9eab"/>
                    <path id="Trazado_210587" data-name="Trazado 210587" d="M504.624,22.365a7.778,7.778,0,0,1-1.045,4.117c-2.185,1.01-5.62,1.281-8.614,1.29a7.52,7.52,0,0,1-2.092-5.167c-.079-3.844,2.49-7.012,5.733-7.078S504.545,18.521,504.624,22.365Z" fill="#6c4472"/>
                    <path id="Trazado_210588" data-name="Trazado 210588" d="M506.9,17.409c-3.774-1.454-8.633-2.823-13.09-2.547a8.478,8.478,0,0,0-4.1,1.224c.9-2.152,2.261-5.363,4.387-5.745C501.075,9.077,504.978,13.934,506.9,17.409Z" fill="url(#linear-gradient-28)"/>
                    <path id="Trazado_210589" data-name="Trazado 210589" d="M488.016,25.892s-.169-8.274,3.561-9.855c4.054-1.719,14.344,3.391,16.237,3.391s5.063-3.56,5.063-3.56-.4,1.026-6.53.133-13.809-3.091-16.158-.925S488.016,25.892,488.016,25.892Z" fill="#4b1226"/>
                    <path id="Trazado_210590" data-name="Trazado 210590" d="M496.086,22.683c.007.342-1.3.646-2.925.679s-2.943-.217-2.95-.559,1.3-.645,2.925-.678S496.079,22.342,496.086,22.683Z" fill="#fff"/>
                  </g>
                  <path id="Trazado_210591" data-name="Trazado 210591" d="M469.9,27.483a7.251,7.251,0,0,1-.412.811c-.082.04-.167.075-.255.11-1.566.186-5.678.539-8.733-.487a8.811,8.811,0,0,1-.864-3.432c-.017-.265-.019-.529-.012-.8.005-.158.013-.313.024-.467.289-3.838,2.772-6.814,5.7-6.732a3.84,3.84,0,0,1,3.456,2.111,45.308,45.308,0,0,1,1.025,4.824C469.928,25.121,469.923,26.6,469.9,27.483Z" fill="#6c4472"/>
                  <path id="Trazado_210592" data-name="Trazado 210592" d="M469.812,23.438c-.475-2.662-1.032-6.663-4.85-7.678-3.145-.833-7.029.635-8.607,1.611,1.266-3.013,4.022-6.522,9.089-5.36C468.693,12.753,469.528,19.219,469.812,23.438Z" fill="url(#linear-gradient-29)"/>
                  <path id="Trazado_210593" data-name="Trazado 210593" d="M469.9,25.276s-.931-7.329-4.242-8.477c-5.559-1.928-9.049,1.737-10.972,3.189-2.622-.45-3.279-3.855-3.279-3.855s2.176,1.585,3.74.857c3.813-1.775,7.442-2.389,10.937-.822S469.9,25.276,469.9,25.276Z" fill="#4b1226"/>
                  <path id="Trazado_210594" data-name="Trazado 210594" d="M450.827,10.134s1.67-4.268,8.019-3.457a21.238,21.238,0,0,1,10.9,5.244s-.378-5.822-2.581-7.765S452.246.051,450.827,10.134Z" fill="#3a9eab"/>
                  <path id="Trazado_210595" data-name="Trazado 210595" d="M429.913-20.958c-.08,2.474,9.381,14.216,15.581,24.224.547.8,1,1.558,1.462,2.3a2.858,2.858,0,0,0,.289.53c.081.177.209.354.289.53a.91.91,0,0,0,.049-.209.316.316,0,0,0-.049-.177c-.032-.224-.112-.4-.144-.61a10.458,10.458,0,0,1-.321-1.269A6.368,6.368,0,0,1,446.8,3.17a18.306,18.306,0,0,1-.465-1.96c0-.048,0-.048-.033-.1-.16-.916-.353-1.832-.5-2.748-1.22-7.389-1.445-15,.1-20.528.916-3.326,2.442-5.9,4.723-7.181A6.279,6.279,0,0,1,452.241-30a3.7,3.7,0,0,1,.45-.112,22.035,22.035,0,0,1,5.767-.241.693.693,0,0,0,.08.016A61.617,61.617,0,0,1,469.317-28.4a93.915,93.915,0,0,1,17.975,6.651c.048,0,.048.048.1.048.6.321,1.157.643,1.574.916a6.355,6.355,0,0,0,.772.449,3.96,3.96,0,0,0,.337.226,9.291,9.291,0,0,0,3.325,1.06,10.462,10.462,0,0,0,6.12-.916h.032a1.217,1.217,0,0,1,.273-.161L498.376-21.3c-.129-.1-.257-.193-.386-.274-.257-.224-.594-.5-1.06-.867-4.386-3.55-13.494-10.682-24.626-18.3a38.155,38.155,0,0,0-4.754-2.8,33.4,33.4,0,0,0-3.518-1.446,19.158,19.158,0,0,0-7.92-.98,12.24,12.24,0,0,0-2.634.466c-.048,0-.048.048-.1.048a11.871,11.871,0,0,0-3.019,1.237,7.109,7.109,0,0,0-1.028.691s-1.4,1.3-3.454,3.293c-1.028,1.012-2.233,2.249-3.534,3.6a.047.047,0,0,0-.048.048c-4.739,4.868-10.49,11.052-11.968,14.313a.047.047,0,0,0-.048.048c-.08.257-.177.434-.225.642A2.628,2.628,0,0,0,429.913-20.958Z" fill="#3a9eab"/>
                  <path id="Trazado_210596" data-name="Trazado 210596" d="M452.293,16.636c-.012.435-.027.957-.085,1.477a12.941,12.941,0,0,1-.08,1.3c-.493,5.162-2.206,11.942-5.741,17.019a20.177,20.177,0,0,1-2.788,3.271,17.4,17.4,0,0,1-3.771,2.634,13.373,13.373,0,0,1-3.513,1.206,9.077,9.077,0,0,1-2.228.329,9.517,9.517,0,0,1-1.088.013c-10.262-.071-12.535-10.53-12.49-16.792l0-.043a12.7,12.7,0,0,1,.642-4.288,4.153,4.153,0,0,1,.367-.686l5.87-4.576.622-.461c-.045.043-.09.085-.091.128s-.045.042-.046.086l-.134.127c-.136.213-.273.427-.5.725-2.041,2.987-6.878,11.072-.495,12.991a8.392,8.392,0,0,0,2.511.418l.522.015a15.249,15.249,0,0,0,4.453-.615c.264-.079.483-.16.7-.24a13.255,13.255,0,0,0,2.914-1.528c.354-.251.666-.5.977-.755,5.437-4.632,7.072-13.285,7.471-18.232a8.748,8.748,0,0,0-.851-3.765c-.162-.4-.325-.792-.532-1.189C440.8-3.215,429.246-16.066,429.9-20.963a3.007,3.007,0,0,1,.148-.6,5.554,5.554,0,0,1,.235-.646.043.043,0,0,1,.045-.042c1.537-3.654,7.1-9.587,11.972-14.322a.041.041,0,0,1,.044-.042c1.118-1.1,2.236-2.156,3.219-3.085,2.769-2.619,4.775-4.346,4.775-4.346l3.041-1.393C438.44-33.728,439.239-17.221,443.119-5.151c.2.789.437,1.447.638,2.062.284.7.569,1.408.81,2.111.326.792.7,1.585,1.022,2.334.41.881.82,1.762,1.233,2.557.083.132.165.309.249.442.165.309.286.617.453.883a.9.9,0,0,0,.167.265c.66,1.28,1.367,2.431,1.949,3.36a.043.043,0,0,0,.043.045,1.526,1.526,0,0,0,.208.354.325.325,0,0,1,.081.176c.294.4.5.754.71,1.064l.042.045c.332.574.626.974.792,1.24C452.017,12.54,452.315,14.288,452.293,16.636Z" fill="#4dd0e1"/>
                  <path id="Trazado_210597" data-name="Trazado 210597" d="M451.164,16.561l0,.087v.044c-.063,5.348-1.733,13.7-5.9,19.711-.29-.53-.576-1.191-.9-1.9-1.107-2.423-2.719-5.426-5.527-6.113,5.437-4.632,7.072-13.285,7.471-18.232a8.748,8.748,0,0,0-.851-3.765,8.516,8.516,0,0,1,1.279.949,2,2,0,0,0,.295.313A13.438,13.438,0,0,0,448.76,9.23c.042.045.084.133.126.178.248.442.5.84.707,1.15l.044,0a2.813,2.813,0,0,0,.289.53c.168.222.251.355.334.487.043.045.085.09.083.133a.044.044,0,0,1,.043.045C450.887,12.508,451.186,14.257,451.164,16.561Z" fill="#924172" opacity="0.6" style="mix-blend-mode: multiply;isolation: isolate"/>
                  <path id="Trazado_210598" data-name="Trazado 210598" d="M443.117-5.151c-1.381-4.739-2.956-12.61-1.221-19.919,3.245-13.606,11.726-16.546,22.827-13.7,9.637,2.441,21.316,9.252,33.267,17.2-.257-.224-.594-.5-1.06-.867C492.287-26,477.461-37.2,466.939-43.318c-1.028-.595-2.008-1.141-2.907-1.655a17.861,17.861,0,0,0-10.554-.514c-.048,0-.048.048-.1.048a10.61,10.61,0,0,0-4.047,1.928s-1.4,1.3-3.454,3.293c-.081.177-.225.337-.3.514A38.4,38.4,0,0,0,440.354-26.1C438.218-14.95,443.246-3.545,444.4-1.2c-.128-.4-.369-1.06-.643-1.895C443.551-3.706,443.31-4.364,443.117-5.151Z" opacity="0.4" fill="url(#linear-gradient-30)" style="mix-blend-mode: screen;isolation: isolate"/>
                  <path id="Trazado_210599" data-name="Trazado 210599" d="M489.636-20.349c-4.147.264-13.957.888-22.983,3.371-4.135-3.519-14.541-11.172-20.76-5.182,1.165-4.258,3.338-7.268,6.809-7.961,9.606-1.916,30.443,5.6,36.246,9.358C489.177-20.614,489.407-20.476,489.636-20.349Z" fill="#924172" opacity="0.6" style="mix-blend-mode: multiply;isolation: isolate"/>
                  <path id="Trazado_210600" data-name="Trazado 210600" d="M483.4,44.6c-.426.451-1.1.327-1.915.27a.048.048,0,0,1,.022-.01S478.363,43,477.99,45.8a.46.46,0,0,0,.017.223c-1.371.985-3.3,2.406-6.477.815a8.207,8.207,0,0,1-2.465-2c-1.372-.235-4.505-.951-4.756-2.614.035.1.2.34.894.733a4.08,4.08,0,0,0,2.632.213,16.1,16.1,0,0,1-1.313-2.529s3.612,5.371,12.7,2.833c4.544-1.264,4.748-2.858,4.748-2.858S484.127,43.828,483.4,44.6Z" opacity="0.8" fill="url(#linear-gradient-31)" style="mix-blend-mode: multiply;isolation: isolate"/>
                  <g id="Grupo_179424" data-name="Grupo 179424">
                    <path id="Trazado_210601" data-name="Trazado 210601" d="M517.873,14.28s7.149-10.631,10.2-10.633,6.158,2.29,8.491,7.78.393,18.352-8.84,22.553-11.174-1.454-11.174-1.454Z" fill="url(#linear-gradient-32)"/>
                    <path id="Trazado_210602" data-name="Trazado 210602" d="M520.167,26.142a15.921,15.921,0,0,0,1.68.018c1.7-.063,4.268-.4,5.74-1.764,2.33-2.158-.6-7.342-.6-7.342s3.307-4.69,3.7-4.747,2.8,1.669,3.317,4.477c.517,2.77-3.652,11.228-3.76,11.448.172-.179,5.255-5.577,5.124-10.426-.137-4.93-3.466-8.636-5.145-9.328-.927-.381-3.917,2.85-6.42,5.833-2.044,2.438-3.762,4.709-3.762,4.709C524.645,18.565,520.167,26.142,520.167,26.142Z" opacity="0.36" fill="url(#linear-gradient-33)" style="mix-blend-mode: multiply;isolation: isolate"/>
                    <path id="Trazado_210603" data-name="Trazado 210603" d="M520.167,26.142a15.921,15.921,0,0,0,1.68.018,12.842,12.842,0,0,0,4.842-3.22c1.562-2.014-1.179-6.321-2.883-8.629-2.044,2.438-3.762,4.709-3.762,4.709C524.645,18.565,520.167,26.142,520.167,26.142Z" opacity="0.25" fill="url(#linear-gradient-34)" style="mix-blend-mode: multiply;isolation: isolate"/>
                  </g>
                  <path id="Trazado_210604" data-name="Trazado 210604" d="M450.619-29.343c-.145.273-.29.546-.434.787a16.007,16.007,0,0,1,1.847-1.333.891.891,0,0,1,.209-.113c1.269-.642,3.6-.642,6.217-.353a.693.693,0,0,0,.08.016,91.519,91.519,0,0,1,13.14,2.891l-2.361-.948-9.831-3.951s-4.546-6.361-3.374-13.606a12.24,12.24,0,0,0-2.634.466c-.048,0-.048.048-.1.048a11.871,11.871,0,0,0-3.019,1.237c.465,1.51.979,3.358,1.542,5.574A12.793,12.793,0,0,1,450.619-29.343Z" opacity="0.4" fill="url(#linear-gradient-35)" style="mix-blend-mode: screen;isolation: isolate"/>
                  <path id="Trazado_210605" data-name="Trazado 210605" d="M515.724-19.512c.4-.145,6.779-2.811,8.98-14.072a12.848,12.848,0,0,0,.225-3.438c-.578-.4-1.157-.77-1.767-1.14a8.308,8.308,0,0,0-3.936-1.269C522.085-27.367,516.061-19.914,515.724-19.512Z" opacity="0.4" fill="url(#linear-gradient-36)" style="mix-blend-mode: screen;isolation: isolate"/>
                  <path id="Trazado_210606" data-name="Trazado 210606" d="M496.064,22.377a2.657,2.657,0,1,0,2.484-2.82A2.657,2.657,0,0,0,496.064,22.377Z" fill="#350828"/>
                  <path id="Trazado_210607" data-name="Trazado 210607" d="M463.314,24.45a2.657,2.657,0,1,0,2.483-2.819A2.656,2.656,0,0,0,463.314,24.45Z" fill="#350828"/>
                  <path id="Trazado_210608" data-name="Trazado 210608" d="M463.1,22.818c-.01.321-1.253.546-2.778.5s-2.754-.338-2.745-.659,1.252-.547,2.778-.5S463.1,22.5,463.1,22.818Z" fill="#fff"/>
                  <path id="Trazado_210609" data-name="Trazado 210609" d="M433.059-14.776s14.383,21.715,7.82,36.482-13.127,11.485-13.127,11.485,6.564,3.282,11.486-11.485-8.274-39.135-8.274-39.135Z" fill="#4dd0e1"/>
                </g>
              </g>
            </g>
          </g>
        </g>
      </g>
    </g>
  </g>
</svg>
