<svg xmlns="http://www.w3.org/2000/svg" width="190" height="115" viewBox="0 0 190 115">
  <g id="Grupo_179463" data-name="Grupo 179463" transform="translate(-180 -5105)">
    <g id="Grupo_179462" data-name="Grupo 179462">
      <g id="Grupo_179461" data-name="Grupo 179461">
        <g id="Grupo_179460" data-name="Grupo 179460">
          <g id="Grupo_179459" data-name="Grupo 179459">
            <g id="Grupo_141241" data-name="Grupo 141241" transform="translate(0 1332)">
              <rect id="Rect치ngulo_41430" data-name="Rect치ngulo 41430" width="85" height="28" rx="14" transform="translate(285 3780.5)" fill="#feca2e" opacity="0.2"/>
              <rect id="Rect치ngulo_41431" data-name="Rect치ngulo 41431" width="85" height="28" rx="14" transform="translate(180 3841.5)" fill="#4dd0e1" opacity="0.2"/>
            </g>
            <path id="Trazado_210621" data-name="Trazado 210621" d="M0,0H190V115H0Z" transform="translate(180 5105)" fill="none"/>
            <g id="Grupo_155926" data-name="Grupo 155926" transform="translate(-818.857 4709.396)">
              <path id="Trazado_200639" data-name="Trazado 200639" d="M1090.012,445.688a5.4,5.4,0,0,1-3.828-1.58l-11.479-11.468a1.732,1.732,0,0,1,.438-2.768A10.127,10.127,0,0,0,1077.72,428a10.237,10.237,0,0,0,1.875-2.574,1.73,1.73,0,0,1,2.769-.435l11.476,11.465a5.406,5.406,0,0,1-3.827,9.232ZM1078.7,431.729l9.937,9.925a1.953,1.953,0,0,0,2.754,0,1.935,1.935,0,0,0,0-2.743l-9.939-9.934a13.6,13.6,0,0,1-2.751,2.751Z" transform="translate(39.065 47.712)" fill="#0f2771"/>
              <path id="Trazado_200640" data-name="Trazado 200640" d="M1100.143,427.234h-39.5a1.733,1.733,0,0,1-1.735-1.735V410.556a4.533,4.533,0,0,1,4.529-4.526h6.69a10.936,10.936,0,0,1,20.529,0h6.69a4.533,4.533,0,0,1,4.529,4.526V425.5A1.734,1.734,0,0,1,1100.143,427.234Zm-37.765-3.47h36.031V410.556a1.058,1.058,0,0,0-1.059-1.056h-7.984a1.736,1.736,0,0,1-1.692-1.351,7.465,7.465,0,0,0-14.56,0,1.733,1.733,0,0,1-1.692,1.348h-7.981a1.061,1.061,0,0,0-1.062,1.056Z" transform="translate(10.59 0)" fill="#0f2771"/>
              <path id="Trazado_200641" data-name="Trazado 200641" d="M1100.143,408.334h-39.5a1.735,1.735,0,0,1,0-3.47h39.5a1.735,1.735,0,1,1,0,3.47Z" transform="translate(10.59 11.171)" fill="#0f2771"/>
              <path id="Trazado_200642" data-name="Trazado 200642" d="M1095.613,416.554H1061.6a1.735,1.735,0,0,1,0-3.469h34.009a1.735,1.735,0,1,1,0,3.469Z" transform="translate(12.374 26.482)" fill="#0f2771"/>
              <path id="Trazado_200643" data-name="Trazado 200643" d="M1095.613,419.649H1061.6a1.733,1.733,0,1,1,0-3.467h34.009a1.733,1.733,0,1,1,0,3.467Z" transform="translate(12.374 32.253)" fill="#0f2771"/>
              <path id="Trazado_200644" data-name="Trazado 200644" d="M1089.567,422.749H1061.6a1.735,1.735,0,0,1,0-3.47h27.963a1.735,1.735,0,0,1,0,3.47Z" transform="translate(12.374 38.022)" fill="#0f2771"/>
              <path id="Trazado_200645" data-name="Trazado 200645" d="M1085.242,425.844H1061.6a1.733,1.733,0,1,1,0-3.467h23.638a1.733,1.733,0,1,1,0,3.467Z" transform="translate(12.374 43.793)" fill="#0f2771"/>
              <path id="Trazado_200646" data-name="Trazado 200646" d="M1088.133,428.941H1061.6a1.733,1.733,0,1,1,0-3.467h26.529a1.733,1.733,0,1,1,0,3.467Z" transform="translate(12.374 49.562)" fill="#0f2771"/>
              <path id="Trazado_200647" data-name="Trazado 200647" d="M1076.984,429a1.733,1.733,0,1,1,1.228-.507A1.728,1.728,0,0,1,1076.984,429Z" transform="translate(41.025 49.671)" fill="#0f2771"/>
              <path id="Trazado_200648" data-name="Trazado 200648" d="M1114.232,481.044h-56.568a1.733,1.733,0,0,1-1.735-1.732V408.1a1.731,1.731,0,0,1,1.735-1.732h8.536a1.731,1.731,0,0,1,1.732,1.732v1.678h36.031V408.1a1.731,1.731,0,0,1,1.735-1.732h8.534a1.731,1.731,0,0,1,1.735,1.732v39.417a1.735,1.735,0,0,1-3.143,1.013,10.24,10.24,0,0,0-15.551-1.262,10.227,10.227,0,0,0,11.9,16.329,1.74,1.74,0,0,1,2.016.315l4.268,4.265a1.736,1.736,0,0,1,.51,1.228v9.9A1.733,1.733,0,0,1,1114.232,481.044Zm-54.833-3.467h53.1v-7.449l-2.911-2.909a13.7,13.7,0,1,1,2.911-23.847V409.84h-5.064v1.677a1.734,1.734,0,0,1-1.735,1.735h-39.5a1.733,1.733,0,0,1-1.735-1.735V409.84H1059.4Z" transform="translate(5.035 13.982)" fill="#0f2771"/>
              <path id="Trazado_200649" data-name="Trazado 200649" d="M1127,494.369h-72.043a1.734,1.734,0,0,1-1.735-1.735V405.023a1.734,1.734,0,0,1,1.735-1.735h16.274a1.733,1.733,0,0,1,1.732,1.735v10.506H1109V405.023a1.734,1.734,0,0,1,1.735-1.735H1127a1.734,1.734,0,0,1,1.735,1.735v15.536a1.735,1.735,0,0,1-3.47,0v-13.8h-12.8v10.506a1.734,1.734,0,0,1-1.735,1.735h-39.5a1.733,1.733,0,0,1-1.735-1.735V406.758h-12.808V490.9h68.577v-7.3l-10.649-10.638a13.688,13.688,0,1,1,7.655-7.649l2.995,2.989V449.455a1.735,1.735,0,0,1,3.47,0v23.036a1.735,1.735,0,0,1-2.96,1.225l-6.8-6.8a1.735,1.735,0,0,1-.315-2.015,10.243,10.243,0,1,0-4.452,4.446,1.732,1.732,0,0,1,2.016.318l11.477,11.465a1.838,1.838,0,0,0,.283.226,1.737,1.737,0,0,1,.756,1.434v9.842A1.734,1.734,0,0,1,1127,494.369Z" transform="translate(0 8.235)" fill="#0f2771"/>
              <path id="Trazado_200650" data-name="Trazado 200650" d="M1080.127,425.663a1.734,1.734,0,0,1-1.735-1.735v-5.2a1.735,1.735,0,0,1,3.47,0v5.2A1.734,1.734,0,0,1,1080.127,425.663Z" transform="translate(46.877 33.762)" fill="#0f2771"/>
              <path id="Trazado_200651" data-name="Trazado 200651" d="M1080.127,422.316a1.733,1.733,0,0,1-1.735-1.732v-6.164a1.735,1.735,0,0,1,3.47,0v6.164A1.733,1.733,0,0,1,1080.127,422.316Z" transform="translate(46.877 25.741)" fill="#0f2771"/>
              <path id="Trazado_200652" data-name="Trazado 200652" d="M1080.127,417.386a1.731,1.731,0,0,1-1.735-1.732v-5.2a1.735,1.735,0,1,1,3.47,0v5.2A1.731,1.731,0,0,1,1080.127,417.386Z" transform="translate(46.877 18.344)" fill="#0f2771"/>
            </g>
          </g>
        </g>
      </g>
    </g>
  </g>
</svg>
