<svg xmlns="http://www.w3.org/2000/svg" width="190" height="89" viewBox="0 0 190 89">
  <g id="Grupo_179446" data-name="Grupo 179446" transform="translate(-180 -424)">
    <g id="Grupo_179445" data-name="Grupo 179445">
      <g id="Grupo_179444" data-name="Grupo 179444">
        <path id="Trazado_210611" data-name="Trazado 210611" d="M14,0H71a14,14,0,0,1,0,28H14A14,14,0,0,1,14,0Z" transform="translate(285 424)" fill="#feca2e" opacity="0.2"/>
        <path id="Trazado_210612" data-name="Trazado 210612" d="M14,0H71a14,14,0,0,1,0,28H14A14,14,0,0,1,14,0Z" transform="translate(180 485)" fill="#4dd0e1" opacity="0.2"/>
        <path id="Trazado_199306" data-name="Trazado 199306" d="M758.188,238.446a9.319,9.319,0,1,1,9.319-9.319A9.329,9.329,0,0,1,758.188,238.446Zm0-15.664a6.346,6.346,0,1,0,6.344,6.345A6.353,6.353,0,0,0,758.188,222.782Z" transform="translate(-499.935 223.275)" fill="#0f2771"/>
        <path id="Trazado_199307" data-name="Trazado 199307" d="M773.952,229.162H760.146a1.486,1.486,0,1,1,0-2.972h13.806a1.486,1.486,0,1,1,0,2.972Z" transform="translate(-485.695 232.56)" fill="#0f2771"/>
        <path id="Trazado_199308" data-name="Trazado 199308" d="M781.427,233h-30.8a1.487,1.487,0,0,1,0-2.975h30.8a1.487,1.487,0,0,1,0,2.975Z" transform="translate(-499.542 238.145)" fill="#0f2771"/>
        <path id="Trazado_199309" data-name="Trazado 199309" d="M773.195,236.629H750.626a1.487,1.487,0,0,1,0-2.975h22.568a1.487,1.487,0,0,1,0,2.975Z" transform="translate(-499.542 243.415)" fill="#0f2771"/>
        <path id="Trazado_199310" data-name="Trazado 199310" d="M770.274,240.25H750.626a1.486,1.486,0,1,1,0-2.972h19.648a1.486,1.486,0,1,1,0,2.972Z" transform="translate(-499.542 248.686)" fill="#0f2771"/>
        <path id="Trazado_199311" data-name="Trazado 199311" d="M770.274,243.874H750.626a1.486,1.486,0,1,1,0-2.972h19.648a1.486,1.486,0,1,1,0,2.972Z" transform="translate(-499.542 253.957)" fill="#0f2771"/>
        <path id="Trazado_199312" data-name="Trazado 199312" d="M773.952,226.244H760.146a1.487,1.487,0,0,1,0-2.975h13.806a1.487,1.487,0,1,1,0,2.975Z" transform="translate(-485.695 228.312)" fill="#0f2771"/>
        <path id="Trazado_199313" data-name="Trazado 199313" d="M773.952,223.323H760.146a1.487,1.487,0,1,1,0-2.975h13.806a1.487,1.487,0,1,1,0,2.975Z" transform="translate(-485.695 224.063)" fill="#0f2771"/>
        <path id="Trazado_199314" data-name="Trazado 199314" d="M786.51,274.423h-9.445a1.488,1.488,0,0,1-1.487-1.487v-4.447c-.3-.115-.6-.243-.9-.376l-3.149,3.149a1.487,1.487,0,0,1-2.1,0l-6.678-6.678a1.484,1.484,0,0,1,0-2.1l3.149-3.149c-.135-.3-.26-.6-.376-.9h-4.45a1.486,1.486,0,0,1-1.487-1.487v-9.442a1.486,1.486,0,0,1,1.487-1.487h4.45c.116-.3.241-.6.376-.9l-3.149-3.149a1.484,1.484,0,0,1,0-2.1l6.678-6.676a1.481,1.481,0,0,1,2.1,0l3.149,3.149c.3-.135.6-.26.9-.376v-4.45a1.488,1.488,0,0,1,1.487-1.487h9.445A1.488,1.488,0,0,1,788,231.517v4.45c.3.115.6.24.9.376l3.149-3.149a1.483,1.483,0,0,1,2.1,0l6.678,6.676a1.486,1.486,0,0,1,0,2.1l-3.149,3.149c.135.3.26.6.375.9h4.45a1.486,1.486,0,0,1,1.485,1.487v9.442a1.486,1.486,0,0,1-1.485,1.487h-4.45c-.115.3-.24.6-.375.9l3.149,3.149a1.486,1.486,0,0,1,0,2.1l-6.678,6.678a1.487,1.487,0,0,1-2.1,0l-3.151-3.149c-.3.133-.594.26-.893.376v4.447A1.488,1.488,0,0,1,786.51,274.423Zm-7.957-2.972h6.47v-4.018a1.489,1.489,0,0,1,1.046-1.421A14.465,14.465,0,0,0,788.5,265a1.482,1.482,0,0,1,1.743.265l2.849,2.847,4.575-4.575-2.847-2.85a1.486,1.486,0,0,1-.265-1.745,14.344,14.344,0,0,0,1.016-2.43,1.485,1.485,0,0,1,1.421-1.046h4.018v-6.47h-4.018a1.488,1.488,0,0,1-1.421-1.046,14.286,14.286,0,0,0-1.016-2.432,1.486,1.486,0,0,1,.265-1.745l2.847-2.847-4.575-4.575-2.849,2.847a1.482,1.482,0,0,1-1.745.263,14.385,14.385,0,0,0-2.43-1.016,1.486,1.486,0,0,1-1.046-1.419V233h-6.47v4.018a1.486,1.486,0,0,1-1.045,1.419,14.494,14.494,0,0,0-2.432,1.016,1.482,1.482,0,0,1-1.745-.263l-2.847-2.847-4.575,4.575,2.847,2.847a1.486,1.486,0,0,1,.265,1.745A14.305,14.305,0,0,0,768,247.947a1.488,1.488,0,0,1-1.421,1.046h-4.018v6.47h4.018A1.485,1.485,0,0,1,768,256.508a14.147,14.147,0,0,0,1.016,2.43,1.486,1.486,0,0,1-.265,1.745l-2.847,2.85,4.575,4.575,2.847-2.847a1.485,1.485,0,0,1,1.745-.265,14.492,14.492,0,0,0,2.432,1.016,1.489,1.489,0,0,1,1.045,1.421Z" transform="translate(-484.342 238.145)" fill="#0f2771"/>
        <path id="Trazado_199315" data-name="Trazado 199315" d="M775.691,258.04A11.909,11.909,0,1,1,787.6,246.131,11.922,11.922,0,0,1,775.691,258.04Zm0-20.845a8.935,8.935,0,1,0,8.934,8.937A8.943,8.943,0,0,0,775.691,237.194Z" transform="translate(-478.245 244.241)" fill="#0f2771"/>
        <path id="Trazado_199316" data-name="Trazado 199316" d="M805.4,255.463a1.486,1.486,0,0,1-1.487-1.487V215.007H753.518v2.8h46.106a1.486,1.486,0,0,1,1.487,1.487v32.028a1.487,1.487,0,1,1-2.975,0v-30.54h-46.1a1.488,1.488,0,0,1-1.487-1.487v-5.775a1.486,1.486,0,0,1,1.487-1.487H805.4a1.486,1.486,0,0,1,1.487,1.487v40.456A1.486,1.486,0,0,1,805.4,255.463Z" transform="translate(-497.495 211.968)" fill="#0f2771"/>
        <path id="Trazado_199317" data-name="Trazado 199317" d="M797.272,249.387a1.488,1.488,0,0,1-1.487-1.487V223.135h-46.1a1.488,1.488,0,0,1-1.487-1.487v-5.775a1.486,1.486,0,0,1,1.487-1.487h53.366a1.486,1.486,0,0,1,1.487,1.487v31.1a1.487,1.487,0,1,1-2.975,0V217.36H751.165v2.8h46.106a1.486,1.486,0,0,1,1.487,1.487V247.9A1.486,1.486,0,0,1,797.272,249.387Z" transform="translate(-500.918 215.39)" fill="#0f2771"/>
        <path id="Trazado_199318" data-name="Trazado 199318" d="M787.285,294.187H747.327a1.486,1.486,0,0,1-1.487-1.487V218.225a1.486,1.486,0,0,1,1.487-1.487h53.367a1.486,1.486,0,0,1,1.487,1.487v26.252a1.487,1.487,0,1,1-2.975,0V219.713H748.815v71.5h38.471a1.487,1.487,0,0,1,0,2.975Z" transform="translate(-504.34 218.813)" fill="#0f2771"/>
      </g>
    </g>
  </g>
</svg>
