<svg xmlns="http://www.w3.org/2000/svg" width="576" height="356" viewBox="0 0 576 356">
  <g id="Grupo_179476" data-name="Grupo 179476" transform="translate(6656 6298)">
    <g id="Grupo_179475" data-name="Grupo 179475">
      <g id="Grupo_179474" data-name="Grupo 179474">
        <g id="Grupo_156815" data-name="Grupo 156815" transform="translate(-7243.334 -8065)">
          <rect id="Rectángulo_41096" data-name="Rectángulo 41096" width="141" height="356" transform="translate(1022.333 1767)" fill="#4dd0e1"/>
          <line id="Línea_250" data-name="Línea 250" x1="355" transform="translate(669.333 1768)" fill="none" stroke="#4dd0e1" stroke-width="2" opacity="0.2"/>
          <line id="Línea_251" data-name="Línea 251" x1="355" transform="translate(669.333 2122)" fill="none" stroke="#4dd0e1" stroke-width="2" opacity="0.2"/>
        </g>
        <g id="Grupo_157322" data-name="Grupo 157322" transform="translate(-7274.432 -6385.364)">
          <g id="_6" data-name=" 6">
            <rect id="Rectángulo_44941" data-name="Rectángulo 44941" width="566" height="339" rx="16" transform="translate(618.432 96.364)" fill="#fff"/>
            <rect id="Rectángulo_44942" data-name="Rectángulo 44942" width="565" height="338" rx="15.5" transform="translate(618.932 96.864)" fill="none" stroke="#6f6f6f" stroke-width="1"/>
          </g>
        </g>
        <g id="Grupo_157422" data-name="Grupo 157422" transform="translate(-6717.92 -6312.606)">
          <g id="Device" transform="translate(196.449 166.84)">
            <g id="Grupo_157368" data-name="Grupo 157368">
              <g id="Grupo_157334" data-name="Grupo 157334">
                <g id="Grupo_157333" data-name="Grupo 157333">
                  <g id="Grupo_157329" data-name="Grupo 157329">
                    <path id="Rectángulo_44952" data-name="Rectángulo 44952" d="M11.55,0H184.217a11.549,11.549,0,0,1,11.549,11.549V269.392a11.549,11.549,0,0,1-11.549,11.549H11.549A11.549,11.549,0,0,1,0,269.392V11.55A11.55,11.55,0,0,1,11.55,0Z" transform="translate(0 195.766) rotate(-90)" fill="#263238"/>
                  </g>
                  <g id="Grupo_157330" data-name="Grupo 157330" transform="translate(19.221 6.174)">
                    <rect id="Rectángulo_44953" data-name="Rectángulo 44953" width="183.42" height="234.62" transform="translate(0 183.42) rotate(-90)" fill="#fff"/>
                  </g>
                  <g id="Grupo_157331" data-name="Grupo 157331" transform="translate(257.793 88.852)">
                    <circle id="Elipse_5443" data-name="Elipse 5443" cx="7.511" cy="7.511" r="7.511" transform="matrix(0.229, -0.973, 0.973, 0.229, 0, 14.625)" fill="#455a64"/>
                  </g>
                  <g id="Grupo_157332" data-name="Grupo 157332" transform="translate(8.091 68.402)">
                    <rect id="Rectángulo_44954" data-name="Rectángulo 44954" width="58.962" height="3.103" rx="1.215" transform="translate(0 58.962) rotate(-90)" fill="#455a64"/>
                  </g>
                </g>
              </g>
              <g id="Grupo_157340" data-name="Grupo 157340" transform="translate(43.685 77.141)">
                <circle id="Elipse_5444" data-name="Elipse 5444" cx="18.955" cy="18.955" r="18.955" transform="translate(0 31.665) rotate(-56.646)" fill="#bddcf6"/>
                <g id="Grupo_157335" data-name="Grupo 157335" transform="translate(18.56 21.476)">
                  <path id="Trazado_200866" data-name="Trazado 200866" d="M279.669,336.741c.718-.059,1.37.733,1.456,1.77s-.428,1.925-1.146,1.984-1.371-.733-1.456-1.77S278.951,336.8,279.669,336.741Z" transform="translate(-278.514 -336.738)" fill="#263238"/>
                </g>
                <g id="Grupo_157336" data-name="Grupo 157336" transform="translate(30.382 21.23)">
                  <path id="Trazado_200867" data-name="Trazado 200867" d="M295.484,336.415c-.721-.03-1.338.788-1.381,1.828s.507,1.906,1.226,1.936,1.339-.79,1.382-1.829S296.2,336.444,295.484,336.415Z" transform="translate(-294.101 -336.414)" fill="#263238"/>
                </g>
                <g id="Grupo_157337" data-name="Grupo 157337" transform="translate(18.05 29.604)">
                  <path id="Trazado_200868" data-name="Trazado 200868" d="M293.624,347.858c0,.224-3.533.405-7.89.405s-7.892-.181-7.892-.405,3.533-.4,7.892-.4S293.624,347.635,293.624,347.858Z" transform="translate(-277.842 -347.454)" fill="#263238"/>
                </g>
                <g id="Grupo_157338" data-name="Grupo 157338" transform="translate(17.129 18.839)">
                  <path id="Trazado_200869" data-name="Trazado 200869" d="M280.662,333.724c-.046.225-.945.217-2,.389s-1.911.44-2.024.24c-.116-.183.677-.851,1.9-1.038S280.717,333.515,280.662,333.724Z" transform="translate(-276.628 -333.262)" fill="#263238"/>
                </g>
                <g id="Grupo_157339" data-name="Grupo 157339" transform="translate(31.189 18.696)">
                  <path id="Trazado_200870" data-name="Trazado 200870" d="M299.162,334.6c-.143.181-.962-.248-2.015-.563-1.048-.33-1.966-.435-1.983-.664-.029-.214,1-.485,2.22-.108S299.306,334.436,299.162,334.6Z" transform="translate(-295.164 -333.073)" fill="#263238"/>
                </g>
              </g>
              <g id="Grupo_157346" data-name="Grupo 157346" transform="translate(184.664 79.331)">
                <circle id="Elipse_5446" data-name="Elipse 5446" cx="19.647" cy="19.647" r="19.647" transform="translate(0 38.805) rotate(-80.951)" fill="#4dd0e1"/>
                <g id="Grupo_157341" data-name="Grupo 157341" transform="translate(14.517 17.539)">
                  <path id="Trazado_200871" data-name="Trazado 200871" d="M460.253,334.438c.744-.061,1.42.76,1.509,1.835s-.444,2-1.188,2.057-1.421-.76-1.509-1.835S459.508,334.5,460.253,334.438Z" transform="translate(-459.055 -334.435)" fill="#263238"/>
                </g>
                <g id="Grupo_157342" data-name="Grupo 157342" transform="translate(26.771 17.284)">
                  <path id="Trazado_200872" data-name="Trazado 200872" d="M476.645,334.1c-.746-.031-1.387.818-1.432,1.895s.526,1.976,1.272,2.007,1.388-.818,1.432-1.9S477.392,334.129,476.645,334.1Z" transform="translate(-475.211 -334.099)" fill="#263238"/>
                </g>
                <g id="Grupo_157343" data-name="Grupo 157343" transform="translate(13.986 22.935)">
                  <path id="Trazado_200873" data-name="Trazado 200873" d="M474.717,345a14.151,14.151,0,0,1-2.3-1.193,12.737,12.737,0,0,0-5.849-1.445,14.562,14.562,0,0,0-5.865,1.522A12.637,12.637,0,0,1,458.358,345a6.433,6.433,0,0,1,2.076-1.62,12.759,12.759,0,0,1,6.119-1.826,11.489,11.489,0,0,1,6.141,1.754A6.111,6.111,0,0,1,474.717,345Z" transform="translate(-458.355 -341.549)" fill="#263238"/>
                </g>
                <g id="Grupo_157344" data-name="Grupo 157344" transform="translate(13.039 15.246)">
                  <path id="Trazado_200874" data-name="Trazado 200874" d="M461.284,331.45c.067.083-.062.329-.388.615a3.267,3.267,0,0,1-1.537.72,2.951,2.951,0,0,1-1.7-.189c-.4-.187-.586-.4-.541-.495.1-.214,1.027.094,2.1-.113C460.3,331.8,461.135,331.262,461.284,331.45Z" transform="translate(-457.107 -331.411)" fill="#263238"/>
                </g>
                <g id="Grupo_157345" data-name="Grupo 157345" transform="translate(27.583 14.937)">
                  <path id="Trazado_200875" data-name="Trazado 200875" d="M480.45,332.3c.033.1-.183.291-.617.429a2.917,2.917,0,0,1-1.766-.064,3.435,3.435,0,0,1-1.445-.966c-.288-.333-.393-.595-.316-.671.171-.177.961.5,2.025.872S480.373,332.077,480.45,332.3Z" transform="translate(-476.282 -331.004)" fill="#263238"/>
                </g>
              </g>
              <g id="Grupo_157352" data-name="Grupo 157352" transform="translate(92.662 142.629)">
                <g id="Grupo_157347" data-name="Grupo 157347" transform="translate(74.271)">
                  <path id="Trazado_200876" data-name="Trazado 200876" d="M419.112,408.493l4.552-2.256,4.439,2.47-.739-5.026,3.721-3.458-5.008-.85-2.139-4.608-2.356,4.5-5.043.611,3.552,3.632Z" transform="translate(-416.538 -394.765)" fill="#e0e0e0"/>
                </g>
                <g id="Grupo_157348" data-name="Grupo 157348" transform="translate(55.703)">
                  <path id="Trazado_200877" data-name="Trazado 200877" d="M394.632,408.493l4.552-2.256,4.439,2.47-.739-5.026,3.721-3.458-5.008-.85-2.139-4.608-2.356,4.5-5.043.611,3.552,3.632Z" transform="translate(-392.057 -394.765)" fill="#feca2e"/>
                </g>
                <g id="Grupo_157349" data-name="Grupo 157349" transform="translate(37.135)">
                  <path id="Trazado_200878" data-name="Trazado 200878" d="M370.152,408.493l4.552-2.256,4.439,2.47-.739-5.026,3.721-3.458-5.008-.85-2.139-4.608-2.356,4.5-5.043.611,3.552,3.632Z" transform="translate(-367.577 -394.765)" fill="#feca2e"/>
                </g>
                <g id="Grupo_157350" data-name="Grupo 157350" transform="translate(18.568)">
                  <path id="Trazado_200879" data-name="Trazado 200879" d="M345.671,408.493l4.552-2.256,4.439,2.47-.739-5.026,3.721-3.458-5.008-.85-2.139-4.608-2.356,4.5-5.043.611,3.552,3.632Z" transform="translate(-343.097 -394.765)" fill="#feca2e"/>
                </g>
                <g id="Grupo_157351" data-name="Grupo 157351">
                  <path id="Trazado_200880" data-name="Trazado 200880" d="M321.191,408.493l4.552-2.256,4.439,2.47-.739-5.026,3.721-3.458-5.008-.85-2.139-4.608-2.356,4.5-5.043.611,3.552,3.632Z" transform="translate(-318.616 -394.765)" fill="#feca2e"/>
                </g>
              </g>
              <g id="Grupo_157353" data-name="Grupo 157353" transform="translate(90.7 44.393)">
                <path id="Trazado_200881" data-name="Trazado 200881" d="M407.018,265.45c0,.112-20.37.2-45.492.2s-45.5-.09-45.5-.2,20.365-.2,45.5-.2S407.018,265.338,407.018,265.45Z" transform="translate(-316.03 -265.247)" fill="#263238"/>
              </g>
              <g id="Grupo_157354" data-name="Grupo 157354" transform="translate(114.38 38.928)">
                <path id="Trazado_200882" data-name="Trazado 200882" d="M392.192,258.245c0,.111-10.061.2-22.47.2s-22.471-.09-22.471-.2,10.059-.2,22.471-.2S392.192,258.133,392.192,258.245Z" transform="translate(-347.251 -258.042)" fill="#263238"/>
              </g>
              <g id="Grupo_157365" data-name="Grupo 157365" transform="translate(107.219 64.728)">
                <g id="Grupo_157363" data-name="Grupo 157363" transform="translate(0.289)">
                  <g id="Grupo_157360" data-name="Grupo 157360">
                    <circle id="Elipse_5448" data-name="Elipse 5448" cx="25.881" cy="25.881" r="25.881" transform="matrix(0.307, -0.952, 0.952, 0.307, 0, 49.269)" fill="#feca2e"/>
                    <g id="Grupo_157355" data-name="Grupo 157355" transform="translate(22.064 26.045)">
                      <path id="Trazado_200883" data-name="Trazado 200883" d="M368.856,326.4c.981-.08,1.87,1,1.988,2.417s-.584,2.628-1.565,2.71-1.871-1-1.987-2.417S367.875,326.481,368.856,326.4Z" transform="translate(-367.279 -326.396)" fill="#263238"/>
                    </g>
                    <g id="Grupo_157356" data-name="Grupo 157356" transform="translate(38.206 25.709)">
                      <path id="Trazado_200884" data-name="Trazado 200884" d="M390.451,325.955c-.983-.04-1.827,1.077-1.886,2.5s.692,2.6,1.675,2.643,1.828-1.078,1.886-2.5S391.434,325.995,390.451,325.955Z" transform="translate(-388.562 -325.954)" fill="#263238"/>
                    </g>
                    <g id="Grupo_157357" data-name="Grupo 157357" transform="translate(21.366 34.195)">
                      <path id="Trazado_200885" data-name="Trazado 200885" d="M387.91,337.151c.04.039-.17.306-.587.759a14.793,14.793,0,0,1-1.94,1.747,13.824,13.824,0,0,1-3.423,1.876,12.126,12.126,0,0,1-4.744.743,14,14,0,0,1-4.667-1.076,20.118,20.118,0,0,1-3.437-1.8,11.2,11.2,0,0,1-2.75-2.249,24.879,24.879,0,0,1,3.047,1.76,24.392,24.392,0,0,0,3.409,1.6,14.436,14.436,0,0,0,4.437.963,12.221,12.221,0,0,0,4.458-.638,15.237,15.237,0,0,0,3.345-1.642c.882-.606,1.593-1.117,2.054-1.51C387.587,337.3,387.871,337.111,387.91,337.151Z" transform="translate(-366.359 -337.141)" fill="#263238"/>
                    </g>
                    <g id="Grupo_157358" data-name="Grupo 157358" transform="translate(19.309 19.737)">
                      <path id="Trazado_200886" data-name="Trazado 200886" d="M369.148,318.57c-.045.228-1.283.146-2.753.385-1.474.221-2.627.677-2.74.473-.117-.179.977-1.021,2.615-1.271S369.205,318.363,369.148,318.57Z" transform="translate(-363.647 -318.079)" fill="#263238"/>
                    </g>
                    <g id="Grupo_157359" data-name="Grupo 157359" transform="translate(40.188 19.477)">
                      <path id="Trazado_200887" data-name="Trazado 200887" d="M396.633,319.7c-.143.185-1.239-.47-2.706-.909-1.462-.459-2.737-.532-2.752-.765-.03-.212,1.359-.513,2.989-.008S396.777,319.539,396.633,319.7Z" transform="translate(-391.174 -317.737)" fill="#263238"/>
                    </g>
                  </g>
                  <g id="Grupo_157361" data-name="Grupo 157361" transform="translate(19.222 32.342)">
                    <path id="Trazado_200888" data-name="Trazado 200888" d="M366.1,334.7c.1-.018.266.25.292.739a3.047,3.047,0,0,1-2.065,2.91c-.471.137-.777.07-.793-.032-.038-.224.955-.557,1.637-1.557C365.89,335.785,365.877,334.738,366.1,334.7Z" transform="translate(-363.533 -334.699)" fill="#263238"/>
                  </g>
                  <g id="Grupo_157362" data-name="Grupo 157362" transform="translate(42.132 32.62)">
                    <path id="Trazado_200889" data-name="Trazado 200889" d="M396.711,337.167c.02.1-.193.259-.6.294a2.344,2.344,0,0,1-2.341-1.738c-.083-.4,0-.646.108-.658.226-.018.482.747,1.242,1.286C395.856,336.921,396.663,336.945,396.711,337.167Z" transform="translate(-393.738 -335.065)" fill="#263238"/>
                  </g>
                </g>
                <g id="Grupo_157364" data-name="Grupo 157364" transform="translate(0 0.026)">
                  <path id="Trazado_200890" data-name="Trazado 200890" d="M402.314,324.409s-.023-.177-.047-.52l-.1-1.527q-.031-.5-.067-1.123c-.043-.412-.131-.858-.2-1.343s-.16-1.007-.248-1.565a17.27,17.27,0,0,0-.42-1.753,30.652,30.652,0,0,0-3.56-8.53,31.955,31.955,0,0,0-8.144-9.082l-1.384-1.031c-.486-.319-1-.611-1.5-.922-.517-.294-1.006-.652-1.56-.9l-1.661-.8-.845-.4-.887-.323-1.8-.656c-.611-.2-1.251-.332-1.885-.5a16.242,16.242,0,0,0-1.936-.438,29.753,29.753,0,0,0-4.043-.467c-.689-.024-1.384-.091-2.084-.08l-2.116.109c-.354.025-.713.023-1.068.07l-1.066.164c-.711.118-1.435.2-2.15.349a33.829,33.829,0,0,0-4.263,1.251,33.305,33.305,0,0,0-4.169,1.832c-.675.366-1.322.793-1.99,1.189-.327.21-.676.388-.988.624l-.941.7a36.046,36.046,0,0,0-3.625,3.082l-1.624,1.788-.409.45-.367.486-.731.979-.735.983-.644,1.051-.642,1.059-.322.53-.273.559-1.085,2.253q-.432,1.179-.867,2.366a31.667,31.667,0,0,0,0,20.164q.435,1.189.867,2.367.544,1.132,1.085,2.254l.273.56.322.531.642,1.058.644,1.052.735.983.731.98.367.486.409.45L347.56,347a35.9,35.9,0,0,0,3.626,3.082l.941.7c.312.237.661.415.988.624.668.4,1.315.823,1.99,1.189a33.487,33.487,0,0,0,4.169,1.832,33.86,33.86,0,0,0,4.263,1.251c.716.148,1.44.231,2.151.35l1.066.164c.355.047.714.045,1.069.069l2.116.109c.7.011,1.395-.056,2.084-.08a29.663,29.663,0,0,0,4.044-.467,16.427,16.427,0,0,0,1.936-.438c.633-.172,1.273-.3,1.885-.505l1.8-.655.888-.323.844-.4,1.662-.8c.554-.252,1.044-.609,1.56-.9.507-.312,1.019-.6,1.5-.922l1.383-1.032a31.94,31.94,0,0,0,8.143-9.082,30.657,30.657,0,0,0,3.56-8.529,17.509,17.509,0,0,0,.419-1.753q.132-.836.248-1.565c.072-.485.16-.931.2-1.342q.036-.619.067-1.124c.042-.661.074-1.168.1-1.525s.047-.52.047-.52,0,.176-.006.521-.032.867-.057,1.53q-.022.507-.047,1.129c-.037.413-.119.862-.185,1.349s-.149,1.013-.231,1.575a17.494,17.494,0,0,1-.4,1.764,30.5,30.5,0,0,1-3.518,8.607,32.056,32.056,0,0,1-8.163,9.194l-1.393,1.046c-.489.323-1,.62-1.515.937-.52.3-1.014.661-1.572.916l-1.675.81-.852.407-.895.33-1.817.667c-.617.206-1.263.34-1.9.516a16.577,16.577,0,0,1-1.955.448,30.109,30.109,0,0,1-4.086.484c-.7.026-1.4.095-2.107.086l-2.139-.105c-.359-.024-.721-.022-1.081-.068l-1.079-.163c-.72-.118-1.452-.2-2.176-.35a34.044,34.044,0,0,1-4.315-1.258,33.592,33.592,0,0,1-4.221-1.848c-.683-.369-1.339-.8-2.016-1.2-.331-.212-.685-.392-1-.631l-.953-.711a36.2,36.2,0,0,1-3.673-3.116q-.82-.9-1.647-1.81l-.414-.455-.372-.491-.742-.991-.745-1-.652-1.064-.652-1.072-.326-.538-.277-.566-1.1-2.281q-.438-1.195-.879-2.4a32.03,32.03,0,0,1,0-20.418l.879-2.4,1.1-2.281.277-.566.327-.537.651-1.071.652-1.064.745-1,.741-.99.372-.491.414-.455,1.646-1.809a36.292,36.292,0,0,1,3.673-3.115l.953-.711c.316-.238.669-.419,1-.63.677-.4,1.333-.831,2.016-1.2a33.572,33.572,0,0,1,4.22-1.848,34.2,34.2,0,0,1,4.314-1.258c.724-.149,1.456-.231,2.176-.349l1.079-.164c.359-.046.721-.043,1.08-.068l2.14-.105c.708-.01,1.41.06,2.106.086a29.866,29.866,0,0,1,4.085.483,16.623,16.623,0,0,1,1.955.448c.639.176,1.285.31,1.9.516l1.817.668.9.329.852.407,1.675.81c.558.256,1.052.617,1.572.916.51.316,1.025.613,1.515.937l1.393,1.045a32.063,32.063,0,0,1,8.165,9.194,30.479,30.479,0,0,1,3.518,8.607,17.36,17.36,0,0,1,.4,1.765q.123.842.231,1.575c.066.488.148.936.185,1.35q.025.621.047,1.129c.024.663.044,1.172.057,1.531S402.314,324.409,402.314,324.409Z" transform="translate(-337.809 -292.093)" fill="#feca2e"/>
                </g>
              </g>
              <rect id="Rectángulo_44955" data-name="Rectángulo 44955" width="234.62" height="11.706" transform="translate(19.221 6.174)" fill="#e0e0e0"/>
              <path id="Trazado_200891" data-name="Trazado 200891" d="M230.762,221.643a1.585,1.585,0,1,1-1.585-1.585A1.585,1.585,0,0,1,230.762,221.643Z" transform="translate(-203.97 -209.94)" fill="#fff"/>
              <path id="Trazado_200892" data-name="Trazado 200892" d="M237.7,221.643a1.585,1.585,0,1,1-1.585-1.585A1.586,1.586,0,0,1,237.7,221.643Z" transform="translate(-205.647 -209.94)" fill="#fff"/>
              <path id="Trazado_200893" data-name="Trazado 200893" d="M244.648,221.643a1.585,1.585,0,1,1-1.585-1.585A1.585,1.585,0,0,1,244.648,221.643Z" transform="translate(-207.324 -209.94)" fill="#fff"/>
              <g id="Grupo_157366" data-name="Grupo 157366" transform="translate(46.15 53.624)">
                <path id="Trazado_200894" data-name="Trazado 200894" d="M439.135,277.619c0,.111-40.71.2-90.916.2-50.223,0-90.925-.091-90.925-.2s40.7-.2,90.925-.2C398.425,277.417,439.135,277.507,439.135,277.619Z" transform="translate(-257.294 -277.417)" fill="#e0e0e0"/>
              </g>
              <g id="Grupo_157367" data-name="Grupo 157367" transform="translate(46.15 58.13)">
                <path id="Trazado_200895" data-name="Trazado 200895" d="M439.135,283.562c0,.112-40.71.2-90.916.2-50.223,0-90.925-.09-90.925-.2s40.7-.2,90.925-.2C398.425,283.359,439.135,283.45,439.135,283.562Z" transform="translate(-257.294 -283.359)" fill="#e0e0e0"/>
              </g>
            </g>
          </g>
          <g id="Character" transform="translate(258.788 59.901)">
            <g id="Grupo_157415" data-name="Grupo 157415">
              <g id="Grupo_157386" data-name="Grupo 157386" transform="translate(0 46.73)">
                <g id="Grupo_157383" data-name="Grupo 157383">
                  <g id="Grupo_157369" data-name="Grupo 157369" transform="translate(0 20.298)">
                    <path id="Trazado_200896" data-name="Trazado 200896" d="M337.5,195.262s-1.6-3.631-1.9-4.43c-.815-2.178-6.065-16.762-4.806-18.971,5.821-10.212,10.33-17.472,21.81-17.472l20.27-.135s19.211-3.911,32.746,39.772Z" transform="translate(-291.189 -154.114)" fill="#455a64"/>
                    <path id="Trazado_200897" data-name="Trazado 200897" d="M282.187,198.905l26.543-5.721,31.207-16.415.118-22.4c-4.683-1.292-13.641,1.956-29.772,10.174l-23.963,12.37a14.187,14.187,0,0,0-4.133,21.988Z" transform="translate(-278.639 -154.098)" fill="#455a64"/>
                  </g>
                  <g id="Grupo_157376" data-name="Grupo 157376" transform="translate(2.794 48.274)">
                    <g id="Grupo_157373" data-name="Grupo 157373" transform="translate(42.133 48.39)">
                      <g id="Grupo_157370" data-name="Grupo 157370">
                        <path id="Trazado_200898" data-name="Trazado 200898" d="M356.233,266.576c-.384-1.26-.123-2.069,1.713-1.453,4.05,1.358,7.667.916,8.552.13s.072-2.291-1.244-2.162a15.939,15.939,0,0,1-4.266-.591,10.392,10.392,0,0,1-3.181-1.344c-.844-.54-1.575-1.043-2.222-1.507,0,0-3.734-2.7-4.905-4.868l-12.809,5.5,2.063,6.416a6.782,6.782,0,0,0,4.333,4.97c3.661,1.193,9.485.745,9.485.745,1.068-.7,5.19,5.262,6.436,7.367,1.231,2.08,2.736,2.365,3.218,1.079.329-.877-3.333-7.41-4.613-9.463a25.021,25.021,0,0,1-2.561-4.816" transform="translate(-337.872 -254.782)" fill="#b77153"/>
                      </g>
                      <g id="Grupo_157371" data-name="Grupo 157371" transform="translate(7.165 13.589)">
                        <path id="Trazado_200899" data-name="Trazado 200899" d="M349.837,276.752c-.011.046-.316.033-.753-.181a3.314,3.314,0,0,1-1.754-3.136c.046-.485.194-.752.239-.736a4.239,4.239,0,0,0,2.268,4.053Z" transform="translate(-347.319 -272.698)" fill="#995037"/>
                      </g>
                      <g id="Grupo_157372" data-name="Grupo 157372" transform="translate(11.368 13.853)">
                        <path id="Trazado_200900" data-name="Trazado 200900" d="M355.227,276.991c-.014.046-.3.018-.714-.2a3.293,3.293,0,0,1-1.644-3.034c.04-.463.176-.722.221-.708a4.39,4.39,0,0,0,2.136,3.944Z" transform="translate(-352.861 -273.046)" fill="#995037"/>
                      </g>
                    </g>
                    <g id="Grupo_157375" data-name="Grupo 157375">
                      <path id="Trazado_200901" data-name="Trazado 200901" d="M282.323,206.945s40.665,46.737,40.617,45.965,18.229-14.437,18.229-14.437L301.3,190.983Z" transform="translate(-282.323 -190.983)" fill="#455a64"/>
                      <g id="Grupo_157374" data-name="Grupo 157374" transform="translate(24.663 6.777)">
                        <path id="Trazado_200902" data-name="Trazado 200902" d="M314.841,199.919c.011-.009.109.086.286.277l.758.844,2.733,3.155c2.294,2.675,5.441,6.389,8.9,10.507s6.572,7.863,8.81,10.586l2.636,3.239.7.894a1.476,1.476,0,0,1,.224.33c-.011.009-.108-.086-.285-.276l-.758-.844-2.732-3.155c-2.294-2.676-5.442-6.39-8.9-10.51s-6.572-7.862-8.81-10.586l-2.635-3.238-.7-.894A1.482,1.482,0,0,1,314.841,199.919Z" transform="translate(-314.84 -199.918)" fill="#263238"/>
                      </g>
                    </g>
                  </g>
                  <g id="Grupo_157377" data-name="Grupo 157377" transform="translate(92.15 42.114)">
                    <path id="Trazado_200903" data-name="Trazado 200903" d="M407.38,201.185a13.839,13.839,0,0,0,.487-2.994,8.972,8.972,0,0,0-2.658-6.556c-.986-1.038-2.047-1.932-2.9-2.873a8.861,8.861,0,0,1-1.822-2.84,4.951,4.951,0,0,1-.331-2.253,1.99,1.99,0,0,1,.212-.807,5.637,5.637,0,0,0,.385,2.955,9.057,9.057,0,0,0,1.829,2.692c.848.906,1.911,1.786,2.922,2.849a9.314,9.314,0,0,1,2.19,3.5,8.965,8.965,0,0,1,.459,3.343,8.09,8.09,0,0,1-.426,2.23A2.488,2.488,0,0,1,407.38,201.185Z" transform="translate(-400.133 -182.861)" fill="#263238"/>
                  </g>
                  <g id="Grupo_157378" data-name="Grupo 157378" transform="translate(30.766 22.908)">
                    <path id="Trazado_200904" data-name="Trazado 200904" d="M332.986,159.105a3.944,3.944,0,0,1,.59-.28c.394-.169.984-.4,1.76-.643a15.312,15.312,0,0,1,2.913-.593,10.012,10.012,0,0,1,3.924.366,9.094,9.094,0,0,1,4.013,2.582,10.665,10.665,0,0,1,2.412,4.916,18.73,18.73,0,0,1,.385,6.047,13.124,13.124,0,0,1-2.248,6.094,16.741,16.741,0,0,1-4.865,4.313c-1.779,1.122-3.572,2.04-5.271,2.935l-9.031,4.74-6.1,3.164-1.669.843a3.868,3.868,0,0,1-.594.269,4,4,0,0,1,.557-.341l1.634-.909,6.042-3.277,8.986-4.815c1.691-.9,3.485-1.83,5.238-2.942a16.467,16.467,0,0,0,4.747-4.213,12.778,12.778,0,0,0,2.184-5.906,18.517,18.517,0,0,0-.355-5.919,10.373,10.373,0,0,0-2.3-4.773,8.854,8.854,0,0,0-3.851-2.533,9.886,9.886,0,0,0-3.818-.413,15.91,15.91,0,0,0-2.888.52c-.777.221-1.374.423-1.775.567A3.908,3.908,0,0,1,332.986,159.105Z" transform="translate(-319.202 -157.539)" fill="#263238"/>
                  </g>
                  <g id="Grupo_157379" data-name="Grupo 157379" transform="translate(25.642 49.626)">
                    <path id="Trazado_200905" data-name="Trazado 200905" d="M318.734,202.475a16.566,16.566,0,0,0-6.286-9.706,5.083,5.083,0,0,1,1.5.924,13.046,13.046,0,0,1,4.558,7.039A5.1,5.1,0,0,1,318.734,202.475Z" transform="translate(-312.446 -192.766)" fill="#263238"/>
                  </g>
                  <g id="Grupo_157380" data-name="Grupo 157380" transform="translate(66.33 39.467)">
                    <path id="Trazado_200906" data-name="Trazado 200906" d="M391.463,194.164a4.936,4.936,0,0,1-.863.233,8.706,8.706,0,0,1-2.564.11,9.428,9.428,0,0,1-3.855-1.267,8.821,8.821,0,0,1-3.559-4,9.41,9.41,0,0,1-.491-6.454,5.289,5.289,0,0,1,2.146-2.974,2.656,2.656,0,0,1,1.937-.4,2.834,2.834,0,0,1,1.691,1.123,9.392,9.392,0,0,1,.906,8.091,9.614,9.614,0,0,1-2.3,3.766,8.751,8.751,0,0,1-3.952,2.234,9.036,9.036,0,0,1-8.449-1.966,8.859,8.859,0,0,1-2.535-7.7,7.63,7.63,0,0,1,1.547-3.569,3.809,3.809,0,0,1,1.514-1.159,2.439,2.439,0,0,1,1.862.02,3.464,3.464,0,0,1,1.983,2.756,5.8,5.8,0,0,1-.615,3.1,14.8,14.8,0,0,1-3.228,4.3,15.358,15.358,0,0,1-3.315,2.346,14.256,14.256,0,0,1-2.367.989c-.278.092-.5.139-.642.178a.927.927,0,0,1-.223.045,1,1,0,0,1,.212-.084c.14-.052.356-.112.628-.216a16.048,16.048,0,0,0,2.319-1.05,15.618,15.618,0,0,0,3.234-2.372,14.736,14.736,0,0,0,3.123-4.26,5.534,5.534,0,0,0,.565-2.941,3.151,3.151,0,0,0-1.8-2.485,2.1,2.1,0,0,0-1.608-.008,3.479,3.479,0,0,0-1.366,1.063,7.287,7.287,0,0,0-1.453,3.4,8.494,8.494,0,0,0,2.439,7.357,8.654,8.654,0,0,0,8.074,1.864,8.356,8.356,0,0,0,3.772-2.129,9.232,9.232,0,0,0,2.206-3.6,9.881,9.881,0,0,0,.447-4.069,8.5,8.5,0,0,0-.417-1.949,5.61,5.61,0,0,0-.856-1.721,2.466,2.466,0,0,0-1.468-.993,2.3,2.3,0,0,0-1.679.342,4.965,4.965,0,0,0-2.009,2.766,9.138,9.138,0,0,0,.43,6.242,8.623,8.623,0,0,0,3.415,3.921,9.412,9.412,0,0,0,3.755,1.3A10.5,10.5,0,0,0,391.463,194.164Z" transform="translate(-366.091 -179.371)" fill="#fafafa"/>
                  </g>
                  <g id="Grupo_157382" data-name="Grupo 157382" transform="translate(84.742)">
                    <g id="Grupo_157381" data-name="Grupo 157381">
                      <path id="Trazado_200907" data-name="Trazado 200907" d="M402.965,137.067a9.192,9.192,0,0,1-1.812-3.6,2.445,2.445,0,0,1-.049-1.316,1.014,1.014,0,0,1,.978-.752c.455.043.765.467,1.008.854a19.344,19.344,0,0,1,1.871,3.548,2.7,2.7,0,0,1,.218,1.078,1.094,1.094,0,0,1-.527.919,1.125,1.125,0,0,1-1.142-.154,3.312,3.312,0,0,1-.779-.919" transform="translate(-392.942 -128.317)" fill="#995037"/>
                      <path id="Trazado_200908" data-name="Trazado 200908" d="M405.381,135.63q-1-2.1-2.006-4.2a3.335,3.335,0,0,1-.415-1.307,1.009,1.009,0,0,1,1.755-.836,3.354,3.354,0,0,1,.672.991l.947,1.841a5.911,5.911,0,0,1,.624,1.565,2,2,0,0,1-.314,1.609,1.223,1.223,0,0,1-1.509.358" transform="translate(-393.407 -127.727)" fill="#995037"/>
                      <path id="Trazado_200909" data-name="Trazado 200909" d="M393.426,148.238s-2.791-3.62-3.042-5.529,2.088-5.293,7.1-6.053a12.283,12.283,0,0,0,5.154-1.766,1.618,1.618,0,0,0,.587-1.957,29.105,29.105,0,0,1-1.756-4.963c.234-1.024.9-1,2.636,1.533s3.733,5.111,3.348,6.279-6.5,4.786-6.5,4.786l1.672,2.693Z" transform="translate(-390.366 -127.337)" fill="#b77153"/>
                    </g>
                    <path id="Trazado_200910" data-name="Trazado 200910" d="M410.135,189.71l-19.244-37.7,12.39-6.944,26.031,41.266s1.374,2.636,3.292,5.723H410.782" transform="translate(-390.493 -131.619)" fill="#455a64"/>
                  </g>
                </g>
                <g id="Grupo_157384" data-name="Grupo 157384" transform="translate(84.714 13.448)">
                  <path id="Trazado_200911" data-name="Trazado 200911" d="M402.945,145.068a.935.935,0,0,1-.214.152l-.65.394-2.492,1.452-8.949,5.1.071-.229c1.871,3.817,4.3,8.23,6.756,13.027,3.651,7.1,6.806,13.594,9.024,18.327,1.112,2.366,1.99,4.29,2.588,5.624l.676,1.541a3.206,3.206,0,0,1,.21.549,3.265,3.265,0,0,1-.284-.514l-.744-1.509-2.7-5.567c-2.284-4.7-5.478-11.174-9.126-18.266-2.449-4.791-4.866-9.217-6.707-13.056l-.072-.151.143-.079,9.02-4.972,2.539-1.368.675-.348A.972.972,0,0,1,402.945,145.068Z" transform="translate(-390.328 -145.067)" fill="#263238"/>
                </g>
                <g id="Grupo_157385" data-name="Grupo 157385" transform="translate(43.089 52.586)">
                  <path id="Trazado_200912" data-name="Trazado 200912" d="M338.675,205.528a23.138,23.138,0,0,1-3.208-8.86c.116-.027.64,2.018,1.529,4.458S338.781,205.474,338.675,205.528Z" transform="translate(-335.449 -196.668)" fill="#263238"/>
                </g>
              </g>
              <g id="Grupo_157414" data-name="Grupo 157414" transform="translate(34.68)">
                <path id="Trazado_200913" data-name="Trazado 200913" d="M394.652,125.178a7.61,7.61,0,0,0,8.975-11.508c4.345-1.1,7.055-6.112,6.176-10.507s-4.806-7.826-9.187-8.775a9.775,9.775,0,0,0-5.082.129,6.219,6.219,0,0,0-3.789,3.252" transform="translate(-340.636 -72.583)" fill="#263238"/>
                <g id="Grupo_157387" data-name="Grupo 157387" transform="translate(48.132 42.531)">
                  <path id="Trazado_200914" data-name="Trazado 200914" d="M393.1,122.037c.014.046-.567.148-1.484.628a6.555,6.555,0,0,0-2.9,3.126,6.412,6.412,0,0,0,.486,6.113,6.4,6.4,0,0,0,2.834,2.388,6.358,6.358,0,0,0,7.348-1.679,6.407,6.407,0,0,0,1.516-3.382,6.414,6.414,0,0,0-2.217-5.717,6.557,6.557,0,0,0-3.972-1.556c-1.034-.034-1.6.127-1.609.079a1.616,1.616,0,0,1,.407-.113,5.252,5.252,0,0,1,1.205-.123,6.544,6.544,0,0,1,4.153,1.493,6.636,6.636,0,0,1,1.88,2.464,6.747,6.747,0,0,1,.524,3.519,6.766,6.766,0,0,1-1.586,3.6,6.721,6.721,0,0,1-7.806,1.782,6.747,6.747,0,0,1-2.99-2.549,6.739,6.739,0,0,1-1.056-3.4,6.629,6.629,0,0,1,.623-3.035,6.548,6.548,0,0,1,3.092-3.148,5.242,5.242,0,0,1,1.139-.413A1.625,1.625,0,0,1,393.1,122.037Z" transform="translate(-387.821 -121.801)" fill="#e8505b"/>
                </g>
                <path id="Trazado_200915" data-name="Trazado 200915" d="M381.054,96.54a7.456,7.456,0,0,0,3.509-13.782,9.264,9.264,0,0,0-13.828-10.842,12.293,12.293,0,0,0-22.724,3.641,11.88,11.88,0,0,0-15.245,16.12,9.2,9.2,0,0,0,1.559,18.339,8.12,8.12,0,0,0,12.306,9.115A8.882,8.882,0,0,0,362.6,117.3" transform="translate(-324.362 -65.727)" fill="#263238"/>
                <g id="Grupo_157399" data-name="Grupo 157399" transform="translate(24.508 14.768)">
                  <g id="Grupo_157398" data-name="Grupo 157398">
                    <g id="Grupo_157388" data-name="Grupo 157388">
                      <path id="Trazado_200916" data-name="Trazado 200916" d="M379.73,136.826c.159-3.693.357-7.036.357-7.036s8.255-1.041,8.611-9.467-.482-27.829-.482-27.829l-15.195-7.3L356.674,98.366l2.564,38.7a10.262,10.262,0,0,0,10.714,9.573h0A10.261,10.261,0,0,0,379.73,136.826Z" transform="translate(-356.674 -85.197)" fill="#b77153"/>
                    </g>
                    <g id="Grupo_157391" data-name="Grupo 157391" transform="translate(26.982 20.46)">
                      <g id="Grupo_157390" data-name="Grupo 157390">
                        <g id="Grupo_157389" data-name="Grupo 157389">
                          <path id="Trazado_200917" data-name="Trazado 200917" d="M396.4,113.441c-.133.141-.919-.522-2.051-.564-1.13-.06-1.97.53-2.09.377-.059-.068.077-.328.444-.6a2.73,2.73,0,0,1,3.305.149C396.354,113.107,396.468,113.378,396.4,113.441Z" transform="translate(-392.248 -112.173)" fill="#263238"/>
                        </g>
                      </g>
                    </g>
                    <g id="Grupo_157394" data-name="Grupo 157394" transform="translate(14.455 20.46)">
                      <g id="Grupo_157393" data-name="Grupo 157393">
                        <g id="Grupo_157392" data-name="Grupo 157392">
                          <path id="Trazado_200918" data-name="Trazado 200918" d="M379.886,113.441c-.133.141-.92-.522-2.051-.564-1.13-.06-1.971.53-2.09.377-.059-.068.076-.328.444-.6a2.73,2.73,0,0,1,3.305.149C379.837,113.107,379.951,113.378,379.886,113.441Z" transform="translate(-375.731 -112.173)" fill="#263238"/>
                        </g>
                      </g>
                    </g>
                    <g id="Grupo_157396" data-name="Grupo 157396" transform="translate(22.484 20.11)">
                      <g id="Grupo_157395" data-name="Grupo 157395">
                        <path id="Trazado_200919" data-name="Trazado 200919" d="M386.69,121.826a6.962,6.962,0,0,1,1.843-.281c.29-.02.564-.071.616-.281a1.686,1.686,0,0,0-.178-.925q-.39-1.139-.818-2.39a43.424,43.424,0,0,1-1.823-6.238,43.187,43.187,0,0,1,2.284,6.078q.41,1.257.782,2.4a1.926,1.926,0,0,1,.13,1.22.716.716,0,0,1-.482.433,1.8,1.8,0,0,1-.491.053A6.916,6.916,0,0,1,386.69,121.826Z" transform="translate(-386.318 -111.711)" fill="#263238"/>
                      </g>
                    </g>
                    <g id="Grupo_157397" data-name="Grupo 157397" transform="translate(12.482 41.014)">
                      <path id="Trazado_200920" data-name="Trazado 200920" d="M384.062,142.849a20.1,20.1,0,0,1-10.931-3.578s2.569,6.138,10.788,5.647Z" transform="translate(-373.131 -139.271)" fill="#995037"/>
                    </g>
                  </g>
                </g>
                <path id="Trazado_200921" data-name="Trazado 200921" d="M371.452,85.406a11.12,11.12,0,0,0,.153,12.877,6.462,6.462,0,0,0,5.1,2.85c2.024-.074,3.983-1.992,3.553-3.971a4.189,4.189,0,1,0,8.023.143,7.554,7.554,0,0,0,.944,2.585,2.563,2.563,0,0,0,2.327,1.224c1.27-.168,2.008-1.531,2.3-2.779a11.422,11.422,0,0,0-3.245-10.5,13.843,13.843,0,0,0-10.527-3.692,17.629,17.629,0,0,0-10.34,4.523" transform="translate(-335.258 -70.165)" fill="#263238"/>
                <path id="Trazado_200922" data-name="Trazado 200922" d="M367.591,89.737a19.643,19.643,0,0,1,1.7,7.56,10.14,10.14,0,0,1-2.731,7.1,6.9,6.9,0,0,1-7.167,1.719,7.982,7.982,0,0,1-1.044,6.727,5.11,5.11,0,0,1-6.248,1.642c-1.861-1.02-2.666-3.277-2.922-5.384a17.238,17.238,0,0,1,18.752-19.241" transform="translate(-330.326 -71.526)" fill="#263238"/>
                <g id="Grupo_157402" data-name="Grupo 157402" transform="translate(22.053 37.981)">
                  <g id="Grupo_157401" data-name="Grupo 157401">
                    <path id="Trazado_200923" data-name="Trazado 200923" d="M358.229,116.109a2.964,2.964,0,0,0-3.55.85,4.842,4.842,0,0,0,4.819,7.95" transform="translate(-353.438 -115.802)" fill="#b77153"/>
                    <g id="Grupo_157400" data-name="Grupo 157400" transform="translate(1.739 2.487)">
                      <path id="Trazado_200924" data-name="Trazado 200924" d="M358.523,123.177c0,.048-.375.1-.956-.063a2.536,2.536,0,0,1-1.732-1.549,1.851,1.851,0,0,1,.046-1.346,1.98,1.98,0,0,1,.7-.829c.519-.343.918-.33.92-.287.019.064-.336.156-.746.513a1.663,1.663,0,0,0-.537,1.819,2.5,2.5,0,0,0,1.446,1.408C358.173,123.063,358.53,123.114,358.523,123.177Z" transform="translate(-355.731 -119.082)" fill="#995037"/>
                    </g>
                  </g>
                </g>
                <g id="Grupo_157403" data-name="Grupo 157403" transform="translate(38.183 32.034)">
                  <path id="Trazado_200925" data-name="Trazado 200925" d="M380.333,108.906c-.105.328-1.337.208-2.8.273-1.467.044-2.686.256-2.815-.063-.137-.3,1.061-1.09,2.771-1.149S380.447,108.6,380.333,108.906Z" transform="translate(-374.704 -107.962)" fill="#263238"/>
                </g>
                <g id="Grupo_157404" data-name="Grupo 157404" transform="translate(40.511 32.378)">
                  <path id="Trazado_200926" data-name="Trazado 200926" d="M377.773,108.415" transform="translate(-377.773 -108.415)" fill="none" stroke="#4e585d" stroke-miterlimit="10" stroke-width="1"/>
                </g>
                <g id="Grupo_157405" data-name="Grupo 157405" transform="translate(51.932 31.42)">
                  <path id="Trazado_200927" data-name="Trazado 200927" d="M396.516,108.476c-.128.117-.382.04-.675-.034a2.751,2.751,0,0,0-1.03-.065,12.687,12.687,0,0,1-1.295.114c-.371,0-.63-.083-.677-.244s.118-.369.433-.578a3.238,3.238,0,0,1,1.431-.5,1.9,1.9,0,0,1,1.628.57C396.619,108.084,396.634,108.372,396.516,108.476Z" transform="translate(-392.831 -107.152)" fill="#263238"/>
                </g>
                <path id="Trazado_200928" data-name="Trazado 200928" d="M384.03,127.758a2.539,2.539,0,0,1,2.129-.3,1.594,1.594,0,0,1,1.057,1.738,1.742,1.742,0,0,1-.684.97,2.217,2.217,0,0,1-1.756.43,1.719,1.719,0,0,1-1.306-1.194,1.407,1.407,0,0,1,.685-1.58" transform="translate(-338.628 -80.607)" fill="#995037"/>
                <g id="Grupo_157406" data-name="Grupo 157406" transform="translate(44.605 45.997)">
                  <path id="Trazado_200929" data-name="Trazado 200929" d="M388.1,128.422c.02.046-.269.239-.812.356A3.665,3.665,0,0,1,383.5,127.2c-.3-.468-.365-.809-.319-.827s.214.265.549.656a4.1,4.1,0,0,0,3.519,1.466C387.766,128.458,388.083,128.364,388.1,128.422Z" transform="translate(-383.171 -126.371)" fill="#263238"/>
                </g>
                <g id="Grupo_157407" data-name="Grupo 157407" transform="translate(19.084 45.326)">
                  <path id="Trazado_200930" data-name="Trazado 200930" d="M362.874,132.228c-.048,0-.017-.586-.281-1.586a6.557,6.557,0,0,0-2.4-3.526,6.414,6.414,0,0,0-6.067-.887,6.42,6.42,0,0,0-2.959,2.231,6.358,6.358,0,0,0,0,7.538,6.412,6.412,0,0,0,2.96,2.231,6.413,6.413,0,0,0,6.068-.888,6.555,6.555,0,0,0,2.4-3.526c.264-1,.234-1.589.281-1.586a1.615,1.615,0,0,1,.02.422,5.264,5.264,0,0,1-.149,1.2,6.547,6.547,0,0,1-2.381,3.715,6.629,6.629,0,0,1-2.82,1.283,6.735,6.735,0,0,1-3.547-.273,6.737,6.737,0,0,1-3.151-2.347,6.719,6.719,0,0,1,0-8.006A6.747,6.747,0,0,1,354,125.878a6.74,6.74,0,0,1,3.547-.273,6.637,6.637,0,0,1,2.821,1.283,6.55,6.55,0,0,1,2.381,3.716,5.254,5.254,0,0,1,.149,1.2A1.61,1.61,0,0,1,362.874,132.228Z" transform="translate(-349.523 -125.486)" fill="#e8505b"/>
                </g>
                <g id="Grupo_157408" data-name="Grupo 157408" transform="translate(37.472 14.36)">
                  <path id="Trazado_200931" data-name="Trazado 200931" d="M391.907,84.662c0-.01.074.007.21.052a1.64,1.64,0,0,1,.529.341,2.453,2.453,0,0,1,.678,2.211,3.161,3.161,0,0,1-2.625,2.325,6.578,6.578,0,0,1-4.445-1.063l-1.566-.9,1.718.564a1.859,1.859,0,0,1,1.16,1.33,2.389,2.389,0,0,1-.24,1.814,2.539,2.539,0,0,1-1.543,1.093,3.616,3.616,0,0,1-1.923-.042,6.575,6.575,0,0,1-3.3-2.853l-1.1-1.607,1.395,1.355a3.034,3.034,0,0,1,.751,2.867,3.14,3.14,0,0,1-1.687,2.136,4.085,4.085,0,0,1-4.317-.526,5.135,5.135,0,0,1-1.634-2.434,4.748,4.748,0,0,1-.181-.768.829.829,0,0,1-.016-.273c.033-.006.081.366.325,1a5.222,5.222,0,0,0,1.662,2.281,3.829,3.829,0,0,0,4.007.422,2.793,2.793,0,0,0,1.479-1.916,2.668,2.668,0,0,0-.659-2.5l.3-.253A6.261,6.261,0,0,0,383.974,92a2.658,2.658,0,0,0,3.013-.866,1.809,1.809,0,0,0-.7-2.586l.152-.34a6.328,6.328,0,0,0,4.2,1.08,2.929,2.929,0,0,0,2.462-2.062,2.366,2.366,0,0,0-.541-2.081A2.832,2.832,0,0,0,391.907,84.662Z" transform="translate(-373.766 -84.659)" fill="#455a64"/>
                </g>
                <g id="Grupo_157409" data-name="Grupo 157409" transform="translate(11.143 14.856)">
                  <path id="Trazado_200932" data-name="Trazado 200932" d="M363.316,98.37c.007.005-.027.055-.1.147a3.361,3.361,0,0,1-.355.378,4.911,4.911,0,0,1-4.762,1.059,5.1,5.1,0,0,1-3.011-2.6l.319-.044a4.906,4.906,0,1,1-8.252-4.314l.263.287a5.041,5.041,0,0,1-3.189,1.154,5.478,5.478,0,0,1-3-.816,4.53,4.53,0,0,1-1.793-2.106,5.324,5.324,0,0,1,.872-5.428,3.252,3.252,0,0,1,.925-.768c.025.031-.343.257-.824.853a5.239,5.239,0,0,0-1.1,3.012,5.06,5.06,0,0,0,.4,2.216,4.245,4.245,0,0,0,1.7,1.937,5.158,5.158,0,0,0,2.811.733,4.686,4.686,0,0,0,2.942-1.082l.263.287a4.683,4.683,0,0,0-.966,5.1,4.635,4.635,0,0,0,5.066,2.574,4.708,4.708,0,0,0,3.548-3.694l.088-.534.23.489a4.842,4.842,0,0,0,2.793,2.489,4.674,4.674,0,0,0,2.921.024,5.06,5.06,0,0,0,1.688-.9C363.14,98.536,363.3,98.354,363.316,98.37Z" transform="translate(-339.053 -85.314)" fill="#455a64"/>
                </g>
                <g id="Grupo_157410" data-name="Grupo 157410" transform="translate(3.333 32.024)">
                  <path id="Trazado_200933" data-name="Trazado 200933" d="M345.784,117.327a1.927,1.927,0,0,1-.656.391,4.467,4.467,0,0,1-4.994-1.085,4.682,4.682,0,0,1-1.14-3.89l.347.154a7.742,7.742,0,0,1-2.849,2.326,6.115,6.115,0,0,1-2.765.589,5.636,5.636,0,0,1-2.541-.7,4.49,4.49,0,0,1-2.417-3.589,4.26,4.26,0,0,1,.78-2.846,3.28,3.28,0,0,1,.567-.579c.15-.11.231-.161.24-.149.027.031-.3.255-.677.818a4.207,4.207,0,0,0,1.685,6.018,5.48,5.48,0,0,0,4.957.07,7.474,7.474,0,0,0,2.709-2.2l.491-.634-.144.788a4.376,4.376,0,0,0,1.008,3.6,4.171,4.171,0,0,0,2.669,1.39,4.643,4.643,0,0,0,2.027-.206C345.538,117.439,345.769,117.3,345.784,117.327Z" transform="translate(-328.757 -107.948)" fill="#455a64"/>
                </g>
                <g id="Grupo_157411" data-name="Grupo 157411" transform="translate(57.641 24.971)">
                  <path id="Trazado_200934" data-name="Trazado 200934" d="M406.031,98.65a2.547,2.547,0,0,1,.168,1.4,5.039,5.039,0,0,1-4.433,4.635,2.547,2.547,0,0,1-1.408-.1c.006-.068.541-.011,1.361-.177a5.2,5.2,0,0,0,4.2-4.386C406.044,99.191,405.964,98.659,406.031,98.65Z" transform="translate(-400.358 -98.65)" fill="#455a64"/>
                </g>
                <g id="Grupo_157412" data-name="Grupo 157412" transform="translate(58.387 32.913)">
                  <path id="Trazado_200935" data-name="Trazado 200935" d="M410.909,109.121a1.228,1.228,0,0,1,.19.575,3.264,3.264,0,0,1-.157,1.663,2.58,2.58,0,0,1-1.836,1.688,2.633,2.633,0,0,1-1.535-.133,2.118,2.118,0,0,1-1.208-1.172l.382-.128a2.614,2.614,0,0,1,.095.746,3.02,3.02,0,0,1-1.9,2.7,2.53,2.53,0,0,1-1.509.062,2.922,2.922,0,0,1-1.14-.627,2.753,2.753,0,0,1-.919-1.591,1.2,1.2,0,0,1,.021-.672c.037,0,.023.24.133.637a2.776,2.776,0,0,0,.949,1.407,2.361,2.361,0,0,0,2.332.435,2.68,2.68,0,0,0,1.629-2.361,2.249,2.249,0,0,0-.077-.627l.382-.128a2.052,2.052,0,0,0,2.3,1.094,2.324,2.324,0,0,0,1.653-1.434,3.5,3.5,0,0,0,.263-1.545A3.586,3.586,0,0,1,410.909,109.121Z" transform="translate(-401.342 -109.121)" fill="#455a64"/>
                </g>
                <g id="Grupo_157413" data-name="Grupo 157413" transform="translate(42.918 44.182)">
                  <path id="Trazado_200936" data-name="Trazado 200936" d="M382.852,123.979c.051.008.085.173.017.429a1.774,1.774,0,0,1-1.5,1.246c-.265.018-.421-.046-.419-.1,0-.115.586-.171,1.1-.611C382.576,124.522,382.739,123.96,382.852,123.979Z" transform="translate(-380.946 -123.978)" fill="#263238"/>
                </g>
              </g>
            </g>
          </g>
          <g id="Speech_Bubble" data-name="Speech Bubble" transform="translate(210.644 78.718)">
            <g id="Grupo_157421" data-name="Grupo 157421">
              <g id="Grupo_157417" data-name="Grupo 157417">
                <g id="Grupo_157416" data-name="Grupo 157416">
                  <path id="Trazado_200937" data-name="Trazado 200937" d="M261.2,41.617a3.188,3.188,0,0,1-.527.065l-1.546.13a17.357,17.357,0,0,0-2.489.361c-.486.1-1.024.15-1.572.319L253.309,43a29.013,29.013,0,0,0-8.33,4.251,29.683,29.683,0,0,0-8.14,9.27,31.281,31.281,0,0,0-2.815,6.631,33.21,33.21,0,0,0-1.05,11.833c.044.7.2,1.386.3,2.088a14.745,14.745,0,0,0,.422,2.1,29.668,29.668,0,0,0,3.275,8.211A29.324,29.324,0,0,0,250.952,99.8a26.963,26.963,0,0,0,9.783,2.08A26.393,26.393,0,0,0,270.9,100.3l1-.378.131-.049.12.058,14.413,7.112-.422.368c-1.584-4.731-3.12-9.319-4.593-13.72l-.057-.17.125-.128A30.6,30.6,0,0,0,289,80.8a31.418,31.418,0,0,0,.94-13.329,30.648,30.648,0,0,0-10.453-19.092,31.476,31.476,0,0,0-7.09-4.4,30.824,30.824,0,0,0-5.968-1.806l-2.233-.354-1.646-.1-1.008-.066a1.723,1.723,0,0,1-.342-.04,1.834,1.834,0,0,1,.343-.011l1.011.017,1.657.048,2.253.309a30.231,30.231,0,0,1,6.044,1.737,31.432,31.432,0,0,1,7.212,4.38,30.873,30.873,0,0,1,6.7,7.908A31.218,31.218,0,0,1,290.431,67.4a31.87,31.87,0,0,1-.907,13.555A31.1,31.1,0,0,1,282.036,93.8l.068-.3,4.613,13.714.233.691-.655-.322-14.416-7.1.251.009-1.016.387a26.96,26.96,0,0,1-10.4,1.614,27.533,27.533,0,0,1-10-2.136,29.861,29.861,0,0,1-14.24-12.69,30.166,30.166,0,0,1-3.311-8.369,15.329,15.329,0,0,1-.422-2.137c-.1-.714-.254-1.416-.3-2.124a33.664,33.664,0,0,1,1.119-12.017,31.584,31.584,0,0,1,2.893-6.715,29.869,29.869,0,0,1,8.314-9.331,28.824,28.824,0,0,1,8.464-4.2l1.777-.485a16.077,16.077,0,0,1,1.588-.294,16.266,16.266,0,0,1,2.511-.3l1.554-.069A3.4,3.4,0,0,1,261.2,41.617Z" transform="translate(-232.303 -41.606)" fill="#263238"/>
                </g>
              </g>
              <g id="Grupo_157420" data-name="Grupo 157420" transform="translate(18.076 15.963)">
                <g id="Grupo_157418" data-name="Grupo 157418">
                  <path id="Trazado_200938" data-name="Trazado 200938" d="M273.735,73.154l-2.1.024-4.655-6.334-.048-4.191s-3.248-.162-2.8,5.321.015,4.091.015,4.091-6.891.1-7.457.71c-.412.44-.522,7.287-.552,11a4.021,4.021,0,0,0,2.894,4.017,3.015,3.015,0,0,0,.743.091c1.719-.02,10.485-1.517,10.485-1.517l3.627-.041Z" transform="translate(-256.135 -62.652)" fill="#feca2e"/>
                </g>
                <g id="Grupo_157419" data-name="Grupo 157419" transform="translate(18.713 9.283)">
                  <path id="Trazado_200939" data-name="Trazado 200939" d="M285.691,74.891l-1.128,14.376-3.6.041-.16-14.072Z" transform="translate(-280.807 -74.891)" fill="#feca2e"/>
                </g>
              </g>
            </g>
          </g>
        </g>
      </g>
    </g>
  </g>
</svg>
