<svg xmlns="http://www.w3.org/2000/svg" xmlns:xlink="http://www.w3.org/1999/xlink" width="266.016" height="266.016" viewBox="0 0 266.016 266.016">
  <defs>
    <linearGradient id="linear-gradient" x1="0.554" y1="0.448" x2="1.131" y2="1.893" gradientUnits="objectBoundingBox">
      <stop offset="0" stop-color="#fff"/>
      <stop offset="1" stop-color="#331e2d"/>
    </linearGradient>
  </defs>
  <g id="Grupo_108531" data-name="Grupo 108531" transform="translate(0 0)">
    <g id="Grupo_108527" data-name="Grupo 108527" transform="translate(0 0)">
      <circle id="Elipse_4718" data-name="Elipse 4718" cx="94.051" cy="94.051" r="94.051" transform="translate(0 133.008) rotate(-45)" fill="#e0193b"/>
      <path id="Trazado_113710" data-name="Trazado 113710" d="M1580.859,5874.048a94.073,94.073,0,0,1-177.45,58.416,94.064,94.064,0,1,0,177.45-58.416Z" transform="translate(-1362.43 -5780.827)" opacity="0.5" fill="url(#linear-gradient)" style="mix-blend-mode: multiply;isolation: isolate"/>
    </g>
    <g id="Grupo_108528" data-name="Grupo 108528" transform="translate(67.66 87.074)">
      <path id="Trazado_113711" data-name="Trazado 113711" d="M1483.787,5919.363a9.827,9.827,0,0,0,9.884,8.392h32.383a2.548,2.548,0,0,1,2.4,3.393,91.007,91.007,0,0,0-5.177,21.581c-.656,6.9-.146,16.056,6.8,19.762,3.01,1.605,7.825,2.615,11.06,1.228,2.98-1.278,1.963-5.835,1.963-8.348,0-3.8,1.481-7.412,2.626-10.98,3.587-5.016,6.77-10.307,10.373-15.311,3.123-4.337,6.891-10.195,12.48-11.4a5.686,5.686,0,0,0,4.668-5.52V5861.17a5.624,5.624,0,0,0-5.624-5.624h-57.194a9.811,9.811,0,0,0-9.869,8.46,9.552,9.552,0,0,0,4.393,9.184.025.025,0,0,1-.013.046h-.111a9.809,9.809,0,0,0-9.865,8.458,9.551,9.551,0,0,0,4.393,9.187.025.025,0,0,1-.013.047h-.111a9.808,9.808,0,0,0-9.869,8.493,9.553,9.553,0,0,0,4.472,9.2h-.559A9.571,9.571,0,0,0,1483.787,5919.363Z" transform="translate(-1483.716 -5855.547)" fill="#fff"/>
      <rect id="Rectángulo_40277" data-name="Rectángulo 40277" width="35.201" height="71.305" rx="14.482" transform="translate(95.495)" fill="#fff"/>
    </g>
    <path id="Trazado_113712" data-name="Trazado 113712" d="M1493.06,5755.85c3.133,3.256-6.957,8.575-17.9,19.106s-18.6,22.288-21.73,19.032,3.2-14.431,14.144-24.962S1489.928,5752.595,1493.06,5755.85Z" transform="translate(-1395.297 -5701.3)" fill="#e0193b" style="mix-blend-mode: screen;isolation: isolate"/>
    <path id="Trazado_113713" data-name="Trazado 113713" d="M1594.82,5735.5c.526,1.942-2.237,4.382-6.173,5.448s-7.552.355-8.078-1.587,2.237-4.382,6.172-5.448S1594.294,5733.556,1594.82,5735.5Z" transform="translate(-1480.689 -5686.917)" fill="#e0193b" style="mix-blend-mode: screen;isolation: isolate"/>
  </g>
</svg>
